<svg xmlns="http://www.w3.org/2000/svg" viewBox="0 0 52 52"><g fill="none" stroke="#000" stroke-linecap="round" stroke-linejoin="round" stroke-miterlimit="10" stroke-width="2"><path d="M46.855 36.667H5.145V9.876c0-1.074.871-1.945 1.945-1.945h37.82c1.074 0 1.945.87 1.945 1.945v26.791zM48.459 44.069H3.54a1.539 1.539 0 01-1.333-2.308l2.937-5.094h41.71l2.937 5.094a1.539 1.539 0 01-1.333 2.308z"/></g><path fill="none" stroke="#000" stroke-linecap="round" stroke-linejoin="round" stroke-miterlimit="10" stroke-width="2" d="M26.667 40.368h-1.334"/><g fill="none" stroke="#000" stroke-linecap="round" stroke-linejoin="round" stroke-miterlimit="10" stroke-width="2"><path d="M22.427 30.478l-7.534-7.534 7.534-7.534M29.573 30.478l7.534-7.534-7.534-7.534"/></g><g fill="none" stroke="#000" stroke-linecap="round" stroke-linejoin="round" stroke-miterlimit="10" stroke-width="2"><path d="M46.855 36.667H5.145V9.876c0-1.074.871-1.945 1.945-1.945h37.82c1.074 0 1.945.87 1.945 1.945v26.791zM48.459 44.069H3.54a1.539 1.539 0 01-1.333-2.308l2.937-5.094h41.71l2.937 5.094a1.539 1.539 0 01-1.333 2.308z"/></g><path fill="none" stroke="#000" stroke-linecap="round" stroke-linejoin="round" stroke-miterlimit="10" stroke-width="2" d="M26.667 40.368h-1.334"/><g fill="none" stroke="#000" stroke-linecap="round" stroke-linejoin="round" stroke-miterlimit="10" stroke-width="2"><path d="M22.427 30.478l-7.534-7.534 7.534-7.534M29.573 30.478l7.534-7.534-7.534-7.534"/></g></svg>