<svg xmlns="http://www.w3.org/2000/svg" xmlns:svgjs="http://svgjs.com/svgjs" xmlns:xlink="http://www.w3.org/1999/xlink" width="288" height="288"><svg xmlns="http://www.w3.org/2000/svg" width="288" height="288" viewBox="0 0 64 64"><g fill="#fff" class="color000 svgShape" data-name="Layer 2"><path d="M59,27H54.45a23.22989,23.22989,0,0,0-3.04-7.34l3.22-3.22a1.99178,1.99178,0,0,0,0-2.82L50.38,9.37a1.99935,1.99935,0,0,0-2.82,0l-3.22,3.22A22.98831,22.98831,0,0,0,37,9.55V5a2.00587,2.00587,0,0,0-2-2H29a2.00587,2.00587,0,0,0-2,2V9.55a22.98831,22.98831,0,0,0-7.34,3.04L16.44,9.37a1.99168,1.99168,0,0,0-2.82,0L9.37,13.62a1.99178,1.99178,0,0,0,0,2.82l3.22,3.22A22.98706,22.98706,0,0,0,9.55,27H5a2.00587,2.00587,0,0,0-2,2v6a2.00591,2.00591,0,0,0,2,2H9.55a22.98674,22.98674,0,0,0,3.04,7.34L9.37,47.56a1.99178,1.99178,0,0,0,0,2.82l4.25,4.25a1.99178,1.99178,0,0,0,2.82,0l3.22-3.22A22.98706,22.98706,0,0,0,27,54.45V59a2.00474,2.00474,0,0,0,2,2l6,0a2.00591,2.00591,0,0,0,2-2V54.45a22.94311,22.94311,0,0,0,7.33-3.05l1.8,1.8,1.43,1.43a1.99178,1.99178,0,0,0,2.82,0l4.25-4.25a1.99178,1.99178,0,0,0,0-2.82L51.4,44.33A22.85945,22.85945,0,0,0,54.45,37H59a2.00591,2.00591,0,0,0,2-2V29A2.00587,2.00587,0,0,0,59,27ZM32,46A14.00257,14.00257,0,0,1,18,32c.74026-18.57022,27.26255-18.56492,28,.00012A14.00257,14.00257,0,0,1,32,46Z" class="color168fd6 svgShape"/><path d="M54.45,27a19.03,19.03,0,0,0-.55-2H51.45a22.98706,22.98706,0,0,0-3.04-7.34l3.22-3.22a1.99178,1.99178,0,0,0,0-2.82L48.81,8.8a1.88284,1.88284,0,0,0-1.25.57l-3.22,3.22A22.98831,22.98831,0,0,0,37,9.55V5a2.00587,2.00587,0,0,0-2-2H29a2.00587,2.00587,0,0,0-2,2V9.55a22.98831,22.98831,0,0,0-7.34,3.04L16.44,9.37a1.99168,1.99168,0,0,0-2.82,0L9.37,13.62a1.99178,1.99178,0,0,0,0,2.82l3.22,3.22A22.98706,22.98706,0,0,0,9.55,27H5a2.00587,2.00587,0,0,0-2,2v6a2.00591,2.00591,0,0,0,2,2H9.55a22.98674,22.98674,0,0,0,3.04,7.34L9.37,47.56a1.99178,1.99178,0,0,0,0,2.82l4.25,4.25a1.99178,1.99178,0,0,0,2.82,0l3.22-3.22A22.98706,22.98706,0,0,0,27,54.45V59a1.99933,1.99933,0,0,0,1.15,1.81L32,59a2.00591,2.00591,0,0,0,2-2V52.45a22.85854,22.85854,0,0,0,7.33-3.05l2.38,2.38.85.85a1.99938,1.99938,0,0,0,2.82,0l4.25-4.25a1.99178,1.99178,0,0,0,0-2.82L48.4,42.33A22.85945,22.85945,0,0,0,51.45,35H56a2.00591,2.00591,0,0,0,2-2V27ZM32,46A14.00257,14.00257,0,0,1,18,32c.74026-18.57022,27.26255-18.56492,28,.00012A14.00257,14.00257,0,0,1,32,46Z" class="colorfff svgShape" opacity=".2"/><path d="M39,36.43V57.1a1.99152,1.99152,0,0,1-.69,1.51,9.61645,9.61645,0,0,1-12.58.00979A2.00147,2.00147,0,0,1,25,57.07V36.43a2.05858,2.05858,0,0,1,.36-1.15l5-7.14a1.97055,1.97055,0,0,1,1.13-.79,1.99629,1.99629,0,0,1,2.15.79l5,7.14A2.05858,2.05858,0,0,1,39,36.43Z" class="color56b5ef svgShape"/><path d="M36,34.43V55.1a1.99152,1.99152,0,0,1-.69,1.51c-2.05333,2.08257-6.82276,3.21386-9.94,1.62A1.97823,1.97823,0,0,1,25,57.07V36.43a2.05858,2.05858,0,0,1,.36-1.15l5-7.14a1.97055,1.97055,0,0,1,1.13-.79l4.15,5.93A2.05858,2.05858,0,0,1,36,34.43Z" class="colorfff svgShape" opacity=".2"/><path d="M38.88,35.63a12.10452,12.10452,0,0,1-13.76,0c.533-.759,2.54-3.62676,3.11-4.44l2.13-3.05a2.00371,2.00371,0,0,1,3.28,0l2.13,3.05Z" class="colorccdde7 svgShape"/><path d="M35.88,32.69a12.03583,12.03583,0,0,1-9.94,1.77l2.29-3.27,2.13-3.05a1.998,1.998,0,0,1,1.74-.85C32.50579,27.87464,35.40138,32.00631,35.88,32.69Z" class="colorfff svgShape" opacity=".2"/><path d="M35.77,31.19a7.06918,7.06918,0,0,1-7.54,0c.42508-.61645,1.68507-2.4081,2.13-3.05a2.00969,2.00969,0,0,1,3.28,0Z" class="color168fd6 svgShape"/><path d="M33.62,29.19a7.05657,7.05657,0,0,1-4.72,1.04l1.46-2.09a2.0347,2.0347,0,0,1,1.95-.83Z" class="colorfff svgShape" opacity=".2"/><path fill="#000" d="M59,26.14H55.23828a23.91941,23.91941,0,0,0-2.56348-6.18945l2.66211-2.66309a2.99654,2.99654,0,0,0,0-4.23437l-4.25-4.25a2.99654,2.99654,0,0,0-4.23437,0l-2.66309,2.6621A23.91973,23.91973,0,0,0,38,8.90168V5.14a3.00328,3.00328,0,0,0-3-3H29a3.00328,3.00328,0,0,0-3,3V8.90168a23.91973,23.91973,0,0,0-6.18945,2.56347l-2.66309-2.6621a2.99654,2.99654,0,0,0-4.23437,0l-4.25,4.25a2.99654,2.99654,0,0,0,0,4.23437l2.66211,2.66309A23.91941,23.91941,0,0,0,8.76172,26.14H5a3.00328,3.00328,0,0,0-3,3v6a3.00328,3.00328,0,0,0,3,3H8.76172a23.91941,23.91941,0,0,0,2.56348,6.18945L8.66309,46.9925a2.99654,2.99654,0,0,0,0,4.23437l4.25,4.25a3.06275,3.06275,0,0,0,4.23437,0l2.66211-2.66211A23.70165,23.70165,0,0,0,24,54.75092c.04078,1.50191-.34314,3.76868,1.09774,4.78059A11.119,11.119,0,0,0,32.05762,62.14c3.30459-.039,7.87316-1.94833,7.9425-4.90416L40,54.75043A23.37457,23.37457,0,0,0,44.18164,52.806l2.6709,2.67089a3.00578,3.00578,0,0,0,4.23437,0l4.25-4.25a2.99654,2.99654,0,0,0,0-4.23437L52.666,44.32062A23.79829,23.79829,0,0,0,55.23828,38.14H59a3.00328,3.00328,0,0,0,3-3v-6A3.00328,3.00328,0,0,0,59,26.14ZM37.46289,35.48957a11.17678,11.17678,0,0,1-10.92578,0c.46139-.65969,1.54989-2.21581,1.99957-2.85779a7.97081,7.97081,0,0,0,6.92676-.00037C35.603,32.83047,37.27368,35.21911,37.46289,35.48957ZM34.30176,30.973a6.1066,6.1066,0,0,1-4.60321-.00092l1.48211-2.11725a1.03873,1.03873,0,0,1,1.62537-.01489C33.001,29.10639,34.13758,30.74146,34.30176,30.973Zm5.55786,4.6911a.97325.97325,0,0,0-.1604-.46845l-5.24317-7.49511a3.03731,3.03731,0,0,0-4.915.006l-5.24025,7.48915a.97393.97393,0,0,0-.1604.46857c-.27662.49027-.08905,6.06636-.14038,6.71375-9.66221-7.556-4.30622-23.21624,8.00019-23.23792C44.30656,19.162,49.66228,34.824,40,42.37794,39.94853,41.7317,40.13635,36.13785,39.85962,35.66407ZM37.65527,57.99348a8.61345,8.61345,0,0,1-11.28709-.00707A1.00064,1.00064,0,0,1,26,57.21027V37.4676a13.01968,13.01968,0,0,0,12,0V57.23566A1.00171,1.00171,0,0,1,37.65527,57.99348ZM60,35.14a1.00067,1.00067,0,0,1-1,1H54.4502a1.00073,1.00073,0,0,0-.97657.7832,21.81363,21.81363,0,0,1-2.916,7.00879.999.999,0,0,0,.13574,1.24512l3.22949,3.22949a.99714.99714,0,0,1,0,1.40625l-4.25,4.25a1.01572,1.01572,0,0,1-1.40625,0l-3.22949-3.22949a.99939.99939,0,0,0-1.24609-.13477A21.55978,21.55978,0,0,1,40,52.62733V44.8147c12.60287-8.02305,6.965-27.602-8.00024-27.67468C17.03412,17.21328,11.39748,36.79415,24,44.8147v7.814a21.64147,21.64147,0,0,1-3.80273-1.9223,1.00055,1.00055,0,0,0-1.24415.13671L15.7334,54.06281a1.01572,1.01572,0,0,1-1.40625,0l-4.25-4.25a.99733.99733,0,0,1,0-1.40625l3.21972-3.21973a.99885.99885,0,0,0,.13671-1.24316,21.937,21.937,0,0,1-2.90722-7.02051A1.00073,1.00073,0,0,0,9.5498,36.14H5a1.00067,1.00067,0,0,1-1-1v-6a1.00067,1.00067,0,0,1,1-1H9.5498a1.00074,1.00074,0,0,0,.97657-.7832,21.93686,21.93686,0,0,1,2.90722-7.02051.99887.99887,0,0,0-.13671-1.24317l-3.21973-3.21972a.9955.9955,0,0,1,0-1.40625l4.25-4.25a.99729.99729,0,0,1,1.40625,0l3.21972,3.21972a.99657.99657,0,0,0,1.24317.13672,21.937,21.937,0,0,1,7.02051-2.90722A1.00074,1.00074,0,0,0,28,9.68976V5.14a1.00067,1.00067,0,0,1,1-1h6a1.00067,1.00067,0,0,1,1,1v4.5498a1.00074,1.00074,0,0,0,.7832.97657,21.937,21.937,0,0,1,7.02051,2.90722.99671.99671,0,0,0,1.24317-.13672l3.21972-3.21972a.99729.99729,0,0,1,1.40625,0l4.25,4.25a.9955.9955,0,0,1,0,1.40625l-3.21973,3.21972a.99887.99887,0,0,0-.13671,1.24317,21.93686,21.93686,0,0,1,2.90722,7.02051,1.00074,1.00074,0,0,0,.97657.7832H59a1.00067,1.00067,0,0,1,1,1Z" class="color043968 svgShape"/></g></svg></svg>