<svg version="1.1" id="Layer_1" xmlns="http://www.w3.org/2000/svg" xmlns:xlink="http://www.w3.org/1999/xlink" x="0px" y="0px"
	 width="100%" viewBox="0 0 1080 1080" enable-background="new 0 0 1080 1080" xml:space="preserve">
<path fill="#000000" opacity="1.000000" stroke="none" 
	d="
M1.000000,478.000000 
	C1.000000,319.015472 1.000000,160.030975 1.000000,1.023228 
	C360.949463,1.023228 720.898926,1.023228 1080.924194,1.023228 
	C1080.924194,360.914368 1080.924194,720.828796 1080.924194,1080.871582 
	C721.120728,1080.871582 361.241364,1080.871582 1.000000,1080.871582 
	C1.000000,913.304138 1.000000,745.607971 1.468657,577.456421 
	C19.937683,577.019958 37.938049,577.038940 55.966339,577.522888 
	C55.994259,653.230408 55.994259,728.472961 55.994259,803.721558 
	C377.302521,803.721558 697.968384,803.721558 1018.999268,803.721558 
	C1018.999268,801.481628 1018.998718,799.515503 1018.999329,797.549377 
	C1019.021912,724.068909 1019.044678,650.588501 1019.529419,577.058228 
	C1039.583984,577.008484 1059.176392,577.008484 1078.731445,577.008484 
	C1078.731445,543.713257 1078.731445,510.982666 1078.731445,477.893860 
	C1058.665527,477.893860 1038.867920,477.893860 1019.040894,477.433289 
	C1019.011536,411.065582 1019.011536,345.158447 1019.011536,279.295197 
	C697.666687,279.295197 377.000519,279.295197 55.934383,279.295197 
	C55.934383,345.708099 55.934383,411.827026 55.470417,477.970581 
	C37.004299,477.996796 19.002150,477.998413 1.000000,478.000000 
z"/>
<path fill="#FEFFFE" opacity="1.000000" stroke="none" 
	d="
M55.938416,577.057861 
	C37.938049,577.038940 19.937683,577.019958 1.468657,577.000488 
	C1.000000,544.312439 1.000000,511.624878 1.000000,478.468658 
	C19.002150,477.998413 37.004299,477.996796 55.740440,478.305023 
	C68.121895,478.735992 79.779076,478.617615 91.412308,479.089600 
	C96.456947,479.294250 97.908386,477.892517 97.887154,472.732758 
	C97.686882,424.076233 97.768097,375.418518 97.768112,326.761169 
	C97.768112,324.806793 97.768112,322.852417 97.768112,320.684570 
	C390.830200,320.684570 683.311279,320.684570 976.205505,320.684570 
	C976.205505,322.899506 976.205505,324.713409 976.205505,326.527344 
	C976.205505,345.023804 976.205627,363.520264 976.205688,382.016724 
	C976.205750,412.510895 976.212341,443.005035 976.195007,473.499207 
	C976.193359,476.402893 975.759033,479.135986 980.295105,479.048523 
	C991.788635,478.826813 1003.289551,479.013641 1014.786682,478.928802 
	C1016.217041,478.918243 1017.642517,478.254761 1019.070251,477.893860 
	C1038.867920,477.893860 1058.665527,477.893860 1078.731445,477.893860 
	C1078.731445,510.982666 1078.731445,543.713257 1078.731445,577.008484 
	C1059.176392,577.008484 1039.583984,577.008484 1019.146362,576.879517 
	C1016.505676,576.530823 1014.711243,576.131897 1012.914429,576.121033 
	C1002.750916,576.059692 992.574402,576.389465 982.428101,575.967407 
	C977.245544,575.751831 976.073914,577.419128 976.089111,582.413635 
	C976.264099,639.897461 976.200623,697.381958 976.200623,754.866333 
	C976.200623,756.807312 976.200623,758.748291 976.200623,760.799622 
	C683.086365,760.799622 390.635590,760.799622 97.774132,760.799622 
	C97.774132,758.220703 97.774132,756.078674 97.774132,753.936646 
	C97.774117,696.618896 97.732254,639.301086 97.856529,581.983582 
	C97.866081,577.578491 96.928696,575.801758 92.088547,575.975464 
	C81.604904,576.351746 71.098106,576.051758 60.601608,576.134399 
	C59.044884,576.146606 57.492702,576.735657 55.938416,577.057861 
M304.031219,471.507599 
	C304.229645,471.770355 304.489014,471.939606 305.199585,472.604919 
	C307.452026,474.729095 309.681854,478.672394 311.960358,478.700745 
	C339.911987,479.048340 367.870758,478.822662 396.760345,478.920074 
	C400.107178,478.920074 403.454010,478.920074 407.518829,478.920074 
	C402.427490,464.967590 395.321136,453.529083 386.566132,443.139008 
	C383.130981,439.062378 378.874603,435.677765 375.003235,431.998871 
	C375.003235,431.998871 375.022827,432.012146 374.871948,431.462738 
	C374.533081,431.329224 374.194183,431.195709 373.310974,430.682495 
	C364.911804,419.549591 354.804901,410.200256 342.944061,402.943787 
	C319.138550,388.379639 292.691864,381.364197 265.258057,380.190918 
	C229.201569,378.648834 193.051254,379.314514 156.941940,378.965088 
	C154.163834,378.938202 153.135803,379.872894 153.142319,382.712616 
	C153.212982,413.509277 153.206894,444.306213 153.158310,475.102936 
	C153.154083,477.790009 153.982819,479.028900 156.866608,479.012573 
	C182.829285,478.865417 208.792450,478.804901 235.718872,478.906677 
	C240.964859,478.906677 246.210861,478.906677 251.921265,478.906677 
	C251.921265,473.772888 251.658905,469.294617 252.081970,464.882080 
	C252.208023,463.567230 254.349854,461.309784 255.408005,461.398254 
	C264.626923,462.169159 273.880402,462.974335 282.979431,464.584351 
	C289.751465,465.782562 296.309418,468.190460 303.007355,470.025146 
	C303.007355,470.025146 302.951050,470.023163 303.010315,470.571777 
	C303.322449,470.744019 303.634583,470.916260 303.993195,471.018982 
	C303.993195,471.018982 303.914612,471.047546 304.031219,471.507599 
M476.995239,540.002869 
	C476.995239,540.002869 477.031860,540.010864 477.054077,539.410461 
	C476.638947,539.080872 476.223816,538.751343 475.388611,538.022522 
	C475.168915,537.492371 474.949219,536.962280 474.894989,535.754395 
	C474.968781,535.303101 475.042572,534.851746 475.986969,534.261841 
	C478.226074,533.720520 481.528961,533.907532 482.496002,532.495239 
	C484.957642,528.900024 481.688263,518.441650 477.297852,514.574768 
	C473.736237,508.197784 467.872559,505.596130 461.070374,506.269196 
	C453.569153,507.011414 447.686310,510.998352 444.735718,518.299683 
	C440.316162,529.235962 443.196747,538.204468 454.188904,547.602905 
	C462.242950,552.960876 473.785522,552.410095 481.163269,545.949341 
	C480.137543,544.639526 479.086304,543.297180 477.997345,541.993713 
	C477.997345,541.993713 478.051392,541.993347 478.098724,541.363281 
	C477.732941,540.897522 477.367157,540.431763 476.995239,540.002869 
M274.998077,540.002808 
	C274.998077,540.002808 275.050568,539.994934 275.085815,539.395508 
	C274.679565,539.042542 274.273285,538.689514 273.445251,537.929504 
	C273.231628,537.390198 273.018005,536.850891 272.931854,535.672668 
	C272.993805,535.248657 273.055725,534.824646 273.989594,534.261780 
	C276.282013,533.569946 280.377808,533.196777 280.565796,532.133057 
	C281.570404,526.447937 281.314545,520.659424 276.996735,515.996765 
	C276.996735,515.996765 276.977142,516.050293 276.855682,515.490906 
	C276.574890,515.236145 276.294098,514.981384 275.628998,514.208801 
	C266.181122,501.357391 250.699417,505.576843 244.490433,515.102051 
	C239.101242,523.369629 238.838791,537.815735 251.077667,546.504822 
	C251.402893,546.665222 251.728119,546.825623 251.996552,546.999573 
	C251.996552,546.999573 252.004395,546.941772 252.296890,547.596985 
	C258.860413,552.341248 266.018158,551.881470 273.228607,549.734253 
	C279.881287,547.753052 280.145172,546.609375 275.994751,541.004333 
	C275.994751,541.004333 275.964600,541.062683 275.863647,540.533264 
	C275.581085,540.339783 275.298523,540.146301 274.998077,540.002808 
M869.005737,545.991211 
	C869.005737,545.991211 868.966492,546.003540 869.229492,546.582214 
	C869.818970,546.731384 870.408447,546.880493 870.999878,546.997070 
	C870.999878,546.997070 870.973633,547.016479 871.208130,547.705139 
	C879.489807,552.812561 892.194458,552.370972 899.423828,546.724426 
	C906.192566,541.437683 907.350220,530.628662 901.241150,525.495605 
	C898.017395,522.697205 895.044067,519.512085 891.495972,517.214539 
	C888.266052,515.122925 884.411987,513.995117 881.178162,511.711304 
	C884.593445,507.127808 888.851990,509.804993 893.344299,510.868683 
	C898.501160,514.606079 899.290466,509.015228 901.622009,506.907166 
	C903.745850,504.986816 903.435913,503.162170 900.538086,501.267242 
	C892.428528,493.708069 881.634521,492.013458 872.520752,496.868561 
	C862.771484,502.062195 860.697632,514.130554 869.015686,521.353821 
	C873.526978,525.271362 879.491760,527.499756 884.734375,530.602600 
	C885.876282,531.278503 886.734131,532.434570 887.722778,533.369446 
	C886.468140,534.263733 885.228455,535.877869 883.955872,535.904236 
	C881.203552,535.961243 877.784973,536.081665 875.797668,534.610718 
	C870.507202,530.694763 867.576660,532.890686 864.867676,537.461914 
	C864.213562,538.565613 863.387512,539.567383 862.428162,540.914185 
	C864.012207,542.400330 865.441162,543.740967 867.259277,545.570557 
	C867.843079,545.724365 868.426941,545.878174 869.005737,545.991211 
M115.007927,506.988617 
	C115.007927,506.988617 115.077293,506.984161 115.045219,506.369385 
	C114.653984,505.933228 114.262749,505.497101 113.420982,504.576355 
	C102.961357,492.273712 88.871887,495.720703 75.130760,495.047241 
	C75.130760,512.112244 75.086998,528.380066 75.247459,544.645935 
	C75.256401,545.551453 76.954391,546.440308 77.965332,548.129639 
	C79.261818,548.767822 80.532288,549.884094 81.859566,549.956299 
	C86.175308,550.191101 90.511848,550.048828 94.840370,550.042847 
	C110.405243,550.021484 118.862350,542.948914 120.664101,527.612915 
	C121.474609,520.714050 121.051430,513.684875 115.999687,507.998077 
	C115.999687,507.998077 115.982224,508.052887 115.870598,507.533173 
	C115.593170,507.330811 115.315742,507.128448 115.007927,506.988617 
M1028.745117,513.654541 
	C1028.567383,513.353516 1028.307129,513.168518 1027.487183,512.622070 
	C1018.084106,501.587555 1002.597473,505.780823 996.663208,516.793091 
	C991.458923,526.450928 994.259521,537.980957 1004.092468,546.463562 
	C1004.419067,546.628601 1004.745605,546.793579 1005.004944,546.984680 
	C1005.004944,546.984680 1005.023682,546.914978 1005.381958,547.533630 
	C1012.275391,552.061707 1019.577942,552.077454 1027.099487,549.466248 
	C1033.024292,547.409363 1033.373779,545.768555 1029.006104,540.997864 
	C1029.006104,540.997864 1028.989136,541.037964 1029.001709,540.386047 
	C1028.413818,539.831055 1027.825806,539.276123 1026.873047,538.267334 
	C1026.537231,537.581360 1026.201294,536.895386 1025.959106,535.603394 
	C1026.012329,535.202454 1026.065430,534.801575 1026.991821,534.261658 
	C1029.251953,533.729797 1032.528442,533.939087 1033.566162,532.515869 
	C1035.920654,529.287048 1033.322510,519.538452 1030.010498,515.993469 
	C1030.010498,515.993469 1029.998535,516.036499 1029.998901,515.419067 
	C1029.614258,514.978088 1029.229492,514.537048 1028.942017,514.008789 
	C1028.942017,514.008789 1028.885498,514.126465 1028.745117,513.654541 
M599.345154,510.852905 
	C604.005249,514.291321 605.243103,509.758514 607.393250,507.385437 
	C609.218079,505.371429 610.022461,503.421844 606.598328,501.265045 
	C598.742065,494.079620 589.841797,492.148956 579.920898,496.250458 
	C569.151978,500.702545 566.394348,513.804688 575.133362,521.423340 
	C579.636353,525.348999 585.630798,527.547424 590.881165,530.645081 
	C592.025330,531.320129 592.870361,532.502075 593.853210,533.450562 
	C592.581482,534.316711 591.180725,536.055969 590.061523,535.890503 
	C586.218262,535.322449 582.494812,533.990723 578.680176,533.158203 
	C577.318909,532.861084 575.261902,532.566833 574.503113,533.294250 
	C572.274048,535.431213 570.537109,538.081543 568.380615,540.818848 
	C570.048401,542.386536 571.470032,543.722839 573.273865,545.550903 
	C573.854492,545.709290 574.435120,545.867615 575.003235,545.995117 
	C575.003235,545.995117 574.970154,545.996094 575.238525,546.656982 
	C584.270081,552.232117 593.742981,553.089722 603.196594,548.260193 
	C611.811890,543.858887 614.062866,532.263000 607.990967,526.004211 
	C607.990967,526.004211 608.029175,526.011475 608.052551,525.383057 
	C607.669067,524.919861 607.285645,524.456604 606.533508,523.446960 
	C603.290222,521.251099 600.168396,518.839722 596.768066,516.922363 
	C593.626770,515.151123 590.186890,513.909363 587.216553,511.707001 
	C590.616089,507.130615 594.870483,509.807770 599.345154,510.852905 
M734.001526,547.994690 
	C734.001526,547.994690 733.972290,548.010986 734.224060,548.715698 
	C740.319153,552.565857 746.216064,552.096924 751.754211,547.308044 
	C752.108582,547.316345 752.463013,547.324646 752.986023,548.100403 
	C756.787476,548.975647 760.588989,549.850891 765.075012,550.883728 
	C765.075012,531.710815 765.115295,514.165039 764.956421,496.621094 
	C764.948425,495.742798 763.214783,494.880066 762.073425,493.147705 
	C757.604126,492.535950 753.134888,491.924194 748.123108,491.238190 
	C748.123108,495.243805 748.123169,497.878571 748.123169,500.513367 
	C748.123169,503.125824 748.123108,505.738281 748.123108,508.466034 
	C736.565552,504.773132 729.321533,507.393768 725.151428,516.668762 
	C721.266113,525.310425 722.088257,540.329102 732.259521,547.481934 
	C732.840820,547.663940 733.422119,547.845947 734.001526,547.994690 
M674.013794,547.946228 
	C674.013794,547.946228 674.069153,547.862610 674.414001,548.514343 
	C681.342773,552.641907 687.139709,552.187500 693.683777,547.130798 
	C694.123230,547.195618 694.562744,547.260437 695.171753,548.053162 
	C698.909668,552.218567 703.326660,549.254883 707.904785,549.971313 
	C707.904785,537.106079 707.972351,524.981873 707.775940,512.861877 
	C707.760315,511.896576 705.918701,510.960876 704.722351,509.245300 
	C703.078125,505.108215 699.527771,507.342041 696.935547,507.202576 
	C690.347229,506.848236 690.330933,507.087097 690.324707,513.464417 
	C690.319336,518.961670 690.254456,524.460144 690.344849,529.955872 
	C690.416260,534.303955 688.765808,536.668579 684.040344,535.058411 
	C684.018250,527.993713 683.976379,520.929016 683.986511,513.864319 
	C683.989502,511.805878 684.163574,509.731140 680.971924,509.167847 
	C680.252808,508.478394 679.564209,507.234589 678.809570,507.193176 
	C675.067200,506.987732 671.307312,507.099457 667.248047,507.099457 
	C667.248047,517.123047 666.692322,526.569580 667.515930,535.894287 
	C667.855103,539.734924 671.160828,543.313416 673.295410,547.453491 
	C673.497253,547.728760 673.768250,547.881775 674.013794,547.946228 
M303.007690,547.957153 
	C303.007690,547.957153 303.049927,547.885925 303.342926,548.572449 
	C306.396362,549.414246 309.413025,550.672180 312.516632,550.946533 
	C314.477386,551.119812 316.567932,549.824219 318.600281,549.187439 
	C317.111450,546.218628 319.766296,541.615784 314.701569,539.387146 
	C314.403809,538.610413 314.106049,537.833740 313.878326,536.115356 
	C313.888702,523.541504 313.907379,510.967682 313.901245,498.393829 
	C313.900208,496.309418 314.467773,493.748962 310.692657,493.314178 
	C306.102234,492.610687 301.511780,491.907196 296.854492,491.193451 
	C296.854492,507.472504 296.547333,522.387024 297.091919,537.270386 
	C297.213013,540.579407 300.334473,543.778687 302.261566,547.475464 
	C302.470917,547.748901 302.746796,547.904480 303.007690,547.957153 
M964.992432,548.011597 
	C964.992432,548.011597 964.985657,547.978516 965.264038,548.672363 
	C971.244324,552.805847 977.407654,551.307922 984.972961,549.362244 
	C983.061584,545.853638 981.486450,542.962280 979.579468,539.398560 
	C977.687317,538.609741 975.795227,537.820984 973.917358,536.092896 
	C973.917358,531.185120 973.917358,526.277344 973.917358,521.304138 
	C977.329468,521.080505 979.906860,520.911560 982.913879,520.714417 
	C982.913879,517.655396 983.166016,514.990723 982.780579,512.421753 
	C982.641052,511.491852 980.975525,510.790894 979.849426,509.212738 
	C979.291260,508.522980 978.646484,507.182190 978.188171,507.243164 
	C972.993286,507.934326 971.994690,505.268097 971.522217,500.672699 
	C970.933655,494.948395 965.850098,497.385071 962.449097,496.870239 
	C959.063049,496.357605 958.254578,498.751495 958.376953,501.068054 
	C958.647827,506.195190 955.808044,508.061218 950.934692,508.387115 
	C951.198730,511.707153 950.599304,516.733032 951.805054,517.211609 
	C957.861145,519.615723 956.066223,524.431091 956.244751,528.559265 
	C956.553162,535.688416 957.101074,542.601746 964.055420,547.573486 
	C964.378967,547.718323 964.702454,547.863159 964.992432,548.011597 
M170.029144,541.344177 
	C169.576996,540.918335 169.124847,540.492493 168.212845,539.683228 
	C167.793427,538.826904 167.374008,537.970581 166.987686,536.396057 
	C166.990814,535.917358 166.993942,535.438599 167.868301,534.898376 
	C170.110550,534.322937 173.398834,534.469666 174.391769,533.031616 
	C176.990311,529.268005 173.743973,518.470886 169.239670,514.596863 
	C162.065033,503.829163 147.820312,503.298126 139.505325,513.247986 
	C132.835083,521.229797 131.832153,538.670654 146.157867,547.638916 
	C154.256088,552.953552 165.637650,552.404480 173.109863,545.981323 
	C172.096970,544.676636 171.047531,543.324829 170.000214,542.000183 
	C170.000214,542.000183 170.022461,542.015930 170.029144,541.344177 
M924.271057,502.712067 
	C928.364258,506.034058 933.924377,506.067230 936.671387,502.786011 
	C939.121460,499.859558 938.521362,496.107208 934.710876,492.303345 
	C930.155762,487.646057 925.457825,487.062561 921.820435,490.702332 
	C918.700134,493.824615 919.497009,498.152069 924.271057,502.712067 
M424.853760,514.507996 
	C424.575684,514.268738 424.297607,514.029419 423.634949,513.262756 
	C416.055939,504.815765 412.292664,504.260742 400.497131,509.077423 
	C397.604889,507.981689 394.640594,507.505432 391.667816,507.089508 
	C388.564911,506.655304 387.174683,507.760071 387.204346,511.173492 
	C387.338867,526.652039 387.199341,542.133179 387.376312,557.610901 
	C387.391602,558.946533 389.000641,560.263977 390.040680,562.317261 
	C393.859039,562.918762 397.670227,563.571655 401.498199,564.104126 
	C404.149597,564.472900 405.008728,563.037903 404.871490,560.569519 
	C404.634155,556.301880 404.505280,552.028259 404.558777,547.778625 
	C404.558777,547.778625 404.764954,547.878174 405.187805,548.537842 
	C409.388123,552.128967 414.214478,551.993469 418.759949,549.932556 
	C430.323914,544.689392 433.775024,524.491028 424.998871,514.996277 
	C424.998871,514.996277 424.982330,515.048218 424.853760,514.507996 
M367.808685,516.542542 
	C367.531586,516.304199 367.254486,516.065918 366.584534,515.310120 
	C365.924072,514.563538 365.294342,513.786926 364.598389,513.075073 
	C357.836121,506.157715 350.040436,504.462250 341.454956,508.024567 
	C334.012421,511.112732 330.047607,518.059692 329.678894,527.155457 
	C329.323059,535.933350 333.789825,541.844543 340.487152,547.525818 
	C350.198792,553.150818 361.252716,552.057556 367.345123,544.869446 
	C374.158844,536.830322 374.404724,524.780823 367.984100,517.007202 
	C367.984100,517.007202 367.958801,517.074951 367.808685,516.542542 
M923.036865,548.117188 
	C927.591980,552.415833 932.677490,549.098389 937.892456,549.932434 
	C937.892456,537.051514 937.960083,524.971741 937.765991,512.896118 
	C937.750183,511.914520 935.944397,510.961670 934.809509,509.201599 
	C934.087463,508.502075 933.396667,507.240356 932.638000,507.198090 
	C928.887817,506.989349 925.119629,507.103058 920.757263,507.103058 
	C920.757263,520.143372 920.719971,532.648865 920.851624,545.152710 
	C920.859375,545.887085 922.229187,546.607239 923.036865,548.117188 
M500.993317,548.110168 
	C501.617767,548.736267 502.219879,549.875977 502.870331,549.904175 
	C506.775543,550.074036 510.691833,549.988464 515.132202,549.988464 
	C515.132202,543.264771 515.035828,537.180603 515.159058,531.100952 
	C515.285156,524.879822 518.154114,521.921997 524.310730,521.908264 
	C526.869263,521.902588 528.912720,521.360962 528.737549,518.677734 
	C528.525024,515.422119 533.066956,511.306427 527.126892,508.158020 
	C523.136108,503.841888 519.443176,506.988922 515.631165,508.546692 
	C514.074219,509.182953 511.186035,510.218567 510.916016,509.793610 
	C507.420532,504.292908 502.692169,508.179932 498.191376,507.047546 
	C498.191376,520.123962 498.133514,532.363037 498.307770,544.598694 
	C498.320892,545.519043 499.989716,546.415833 500.993317,548.110168 
M648.929077,539.357300 
	C646.996216,538.552368 645.063416,537.747375 643.078857,536.016785 
	C643.078857,531.116028 643.078857,526.215332 643.078857,521.270081 
	C646.450562,521.054749 649.033752,520.889832 652.062744,520.696350 
	C652.062744,517.693176 652.311523,515.038147 651.933289,512.475708 
	C651.793152,511.526337 650.180359,510.794281 649.090393,509.157806 
	C648.529541,508.486816 647.865662,507.172363 647.423462,507.243134 
	C642.298645,508.063080 640.681335,505.380920 640.496460,500.859131 
	C640.445862,499.619690 639.793518,498.404846 639.327271,496.885284 
	C637.726318,496.885284 636.223633,497.077637 634.787415,496.850250 
	C629.938232,496.082642 627.065796,497.781830 627.385437,502.955688 
	C627.669128,507.547089 624.311462,507.699127 620.893616,508.308441 
	C621.363525,512.396301 618.997192,516.842407 624.382690,519.464966 
	C625.401794,519.961243 625.852234,522.281067 625.981445,523.808838 
	C626.232483,526.776245 626.035095,529.779175 626.085266,532.766418 
	C626.182373,538.546143 628.088440,543.478516 633.242798,547.650940 
	C637.460693,552.145569 642.971497,551.214111 648.162109,550.858765 
	C649.827759,550.744629 652.880310,548.474243 652.724609,547.937988 
	C651.926514,545.190552 654.039612,540.847717 648.929077,539.357300 
M200.951126,548.127869 
	C202.939819,550.010010 215.867340,551.019409 217.660767,549.370911 
	C218.122650,548.946411 218.431198,548.273621 218.630402,547.656799 
	C222.344574,536.157227 226.035019,524.649902 229.721619,513.141418 
	C230.552078,510.548950 229.173981,509.873474 226.927521,509.137634 
	C224.125809,504.857819 219.899979,507.849609 216.391235,507.296661 
	C215.550781,507.164215 213.760376,509.387268 213.354050,510.799500 
	C211.462036,517.375061 209.902451,524.046265 208.223907,530.683228 
	C205.713943,524.921997 204.662384,519.191833 202.717499,513.782898 
	C201.801300,511.234802 199.555801,508.154846 197.221786,507.369812 
	C193.956818,506.271637 190.046280,507.092834 185.618134,507.092834 
	C189.973129,520.445007 194.102036,533.197815 198.362854,545.906311 
	C198.589752,546.583130 199.929581,546.886780 200.951126,548.127869 
M785.097290,562.999268 
	C785.546753,563.614502 785.882385,564.615845 786.462830,564.786987 
	C794.776062,567.238220 803.473511,564.193420 806.647522,556.350281 
	C812.407410,542.117188 817.202759,527.494751 822.466309,513.058777 
	C823.507202,510.204010 821.926514,509.957611 819.835815,509.155701 
	C818.340088,504.873108 814.835022,507.818787 812.339783,507.152100 
	C808.255371,506.060730 806.464600,508.149658 805.679565,512.166931 
	C804.666809,517.349060 803.004944,522.404419 801.622620,527.514343 
	C798.991882,522.746887 797.843384,517.902466 795.874817,513.418030 
	C794.809875,510.992249 792.688110,508.035889 790.431702,507.359863 
	C787.015015,506.336243 783.065125,507.092499 778.828674,507.092499 
	C779.538696,509.135101 779.922913,510.379517 780.398804,511.587830 
	C784.537231,522.095703 788.754944,532.572998 792.813721,543.111511 
	C794.644897,547.866150 792.176636,551.518127 787.288086,551.633606 
	C786.386353,551.654968 785.480652,551.510193 784.497437,551.436096 
	C783.951660,554.037170 783.165100,556.298828 783.126770,558.573059 
	C783.106506,559.776001 784.388489,561.000854 785.097290,562.999268 
M797.068176,478.964996 
	C802.013306,479.558258 806.143799,479.395111 806.934448,472.752289 
	C807.179260,470.694916 809.547607,468.035583 811.578552,467.206024 
	C817.637268,464.731140 823.895508,461.869171 830.282471,461.232880 
	C852.100342,459.059265 872.026184,465.091736 890.259216,477.109344 
	C895.734558,480.718201 900.550232,479.892731 904.636841,474.794128 
	C915.246338,461.557373 925.737732,448.225616 936.400208,435.031952 
	C938.388550,432.571503 938.555603,430.643860 936.080078,428.681549 
	C931.007324,424.660645 925.899597,420.683746 920.866272,415.963409 
	C920.257568,414.534515 920.006165,412.731445 918.974121,411.745941 
	C915.732239,408.650482 912.362732,405.635468 908.748718,402.991089 
	C876.223083,379.191895 839.840576,370.231506 799.969910,375.143097 
	C772.659363,378.507477 748.856140,389.181946 729.731567,409.401672 
	C712.313965,427.816803 704.468201,449.642151 706.143921,474.947357 
	C706.337097,477.865021 707.257385,479.037933 710.307617,479.024994 
	C738.946045,478.903503 767.584839,478.894684 797.068176,478.964996 
M540.775757,478.933136 
	C543.535767,478.256439 547.726868,481.043243 548.829285,476.431671 
	C550.766846,468.326569 556.401367,464.638702 563.790955,462.887207 
	C581.694946,458.643463 599.085144,460.649780 615.831238,467.961029 
	C621.741150,470.541229 627.355225,473.829956 632.993530,476.992737 
	C639.324158,480.543793 643.576416,479.991791 648.050537,474.414276 
	C658.553894,461.320679 668.932983,448.127289 679.465881,435.057739 
	C681.418884,432.634338 681.646729,430.658783 679.156921,428.684906 
	C674.088867,424.666962 668.986511,420.692352 663.965210,415.965973 
	C663.362244,414.533844 663.151367,412.632233 662.091492,411.747009 
	C655.975098,406.638245 650.079468,401.084412 643.336609,396.937256 
	C612.705688,378.097626 579.476440,370.385834 543.620850,375.090210 
	C506.917267,379.905823 477.380066,396.210419 458.651306,429.122498 
	C450.631958,443.214966 448.090637,458.702393 449.448212,474.833862 
	C449.660797,477.360260 450.142059,479.074646 453.495239,479.052032 
	C482.291382,478.857819 511.088745,478.848419 540.775757,478.933136 
M565.103455,576.094727 
	C557.414124,576.094727 549.724792,576.094727 542.035400,576.094727 
	C541.969360,576.419922 541.903320,576.745056 541.837280,577.070251 
	C557.875061,583.726685 573.912903,590.383118 590.135559,597.922119 
	C590.420471,609.249084 586.079773,615.635620 575.349976,619.213257 
	C564.631531,622.787170 553.487122,622.152405 542.789612,620.240845 
	C522.859863,616.679504 505.104340,607.576965 488.933899,595.517639 
	C485.258026,592.776306 483.018829,592.762329 479.992310,596.492493 
	C468.578033,610.560669 456.846130,624.370850 445.262299,638.301819 
	C442.763367,641.307129 440.385895,644.413391 437.644806,647.860046 
	C444.143768,652.837708 450.193237,657.471191 456.063324,662.848755 
	C456.729614,664.400513 456.953064,666.618713 458.130554,667.401184 
	C470.153748,675.390808 481.618500,684.703735 494.609070,690.658630 
	C525.863647,704.985779 558.636169,712.289917 593.470947,707.194031 
	C610.960938,704.635437 627.521851,700.116943 642.816406,691.064270 
	C680.980347,668.475525 697.437012,628.426880 688.113098,587.669250 
	C684.990417,574.019348 687.102600,575.916931 671.046265,576.156311 
	C636.040710,576.188599 601.035217,576.220886 565.103455,576.094727 
M712.993286,663.133118 
	C713.634155,664.572144 713.870239,666.620544 714.978149,667.356689 
	C726.984741,675.333496 738.431274,684.602783 751.377380,690.623779 
	C779.658508,703.776733 809.497742,710.965027 841.156067,708.173950 
	C861.550537,706.375916 881.014465,701.990173 898.945435,691.516907 
	C937.799194,668.822998 954.159851,629.059753 944.941406,587.749329 
	C941.760986,573.497131 943.521057,576.038269 927.997131,576.163391 
	C892.991150,576.190247 857.985168,576.217041 822.062500,576.090332 
	C814.092102,576.090332 806.121704,576.090332 798.151367,576.090332 
	C798.134766,576.353821 798.118225,576.617310 798.101685,576.880859 
	C814.350464,583.613098 830.599243,590.345337 847.036621,597.945557 
	C847.324707,609.064087 843.017334,615.631409 832.554321,619.021545 
	C820.328491,622.982849 807.749756,622.252319 795.569885,619.446960 
	C777.878113,615.372009 761.850403,607.211121 747.105896,596.608582 
	C740.836487,592.100403 740.791565,592.017517 735.712402,598.031616 
	C728.195251,606.932678 720.776794,615.917114 713.324585,624.872925 
	C707.165039,632.275208 701.017639,639.687622 694.409485,647.643738 
	C700.951416,652.767395 707.188782,657.652588 712.993286,663.133118 
M396.165649,576.150635 
	C369.710266,576.131775 343.254578,576.171204 316.799927,576.021484 
	C313.438385,576.002441 311.816254,577.058228 310.582825,580.222351 
	C306.907196,589.651978 301.300323,597.887939 293.426727,604.322632 
	C281.411102,614.142395 267.091278,617.995911 251.973801,618.792786 
	C251.958160,605.894836 251.880676,592.996399 251.974533,580.099243 
	C251.995483,577.222412 251.293381,575.802368 248.107895,576.005432 
	C243.663010,576.288696 239.197708,576.251282 233.852005,576.186829 
	C208.414413,576.156372 182.976440,576.188232 157.539688,576.026123 
	C153.856094,576.002686 153.084991,577.476929 153.132828,580.763550 
	C153.282837,591.069824 153.187820,601.379639 153.187698,611.688110 
	C153.187454,634.799011 153.285034,657.910706 153.094482,681.020081 
	C153.061172,685.060181 154.270874,686.317078 158.200455,686.028870 
	C162.164566,685.738037 166.172211,686.040894 170.153732,687.003418 
	C170.153336,690.502441 170.416687,694.026489 170.086929,697.494202 
	C169.658340,702.001404 171.493118,703.110535 175.799866,703.086914 
	C206.456757,702.918762 237.115295,703.080139 267.772583,702.955811 
	C291.585541,702.859314 314.606720,698.571899 336.904236,689.991150 
	C358.330048,681.745789 375.780609,668.365356 389.678101,650.344971 
	C402.595886,633.594971 410.518768,614.493774 414.558990,593.781433 
	C415.655609,588.159424 416.384399,582.465637 417.366089,576.274597 
	C409.993683,576.274597 403.550995,576.274597 396.165649,576.150635 
z"/>
<path fill="#78D87E" opacity="1.000000" stroke="none" 
	d="
M55.966339,577.522827 
	C57.492702,576.735657 59.044884,576.146606 60.601608,576.134399 
	C71.098106,576.051758 81.604904,576.351746 92.088547,575.975464 
	C96.928696,575.801758 97.866081,577.578491 97.856529,581.983582 
	C97.732254,639.301086 97.774117,696.618896 97.774132,753.936646 
	C97.774132,756.078674 97.774132,758.220703 97.774132,760.799622 
	C390.635590,760.799622 683.086365,760.799622 976.200623,760.799622 
	C976.200623,758.748291 976.200623,756.807312 976.200623,754.866333 
	C976.200623,697.381958 976.264099,639.897461 976.089111,582.413635 
	C976.073914,577.419128 977.245544,575.751831 982.428101,575.967407 
	C992.574402,576.389465 1002.750916,576.059692 1012.914429,576.121033 
	C1014.711243,576.131897 1016.505676,576.530823 1018.684326,576.929260 
	C1019.044678,650.588501 1019.021912,724.068909 1018.999329,797.549377 
	C1018.998718,799.515503 1018.999268,801.481628 1018.999268,803.721558 
	C697.968384,803.721558 377.302521,803.721558 55.994259,803.721558 
	C55.994259,728.472961 55.994259,653.230408 55.966339,577.522827 
z"/>
<path fill="#77D87D" opacity="1.000000" stroke="none" 
	d="
M1019.040894,477.433289 
	C1017.642517,478.254761 1016.217041,478.918243 1014.786682,478.928802 
	C1003.289551,479.013641 991.788635,478.826813 980.295105,479.048523 
	C975.759033,479.135986 976.193359,476.402893 976.195007,473.499207 
	C976.212341,443.005035 976.205750,412.510895 976.205688,382.016724 
	C976.205627,363.520264 976.205505,345.023804 976.205505,326.527344 
	C976.205505,324.713409 976.205505,322.899506 976.205505,320.684570 
	C683.311279,320.684570 390.830200,320.684570 97.768112,320.684570 
	C97.768112,322.852417 97.768112,324.806793 97.768112,326.761169 
	C97.768097,375.418518 97.686882,424.076233 97.887154,472.732758 
	C97.908386,477.892517 96.456947,479.294250 91.412308,479.089600 
	C79.779076,478.617615 68.121895,478.735992 56.204407,478.280396 
	C55.934383,411.827026 55.934383,345.708099 55.934383,279.295197 
	C377.000519,279.295197 697.666687,279.295197 1019.011536,279.295197 
	C1019.011536,345.158447 1019.011536,411.065582 1019.040894,477.433289 
z"/>
<path fill="#78D87E" opacity="1.000000" stroke="none" 
	d="
M170.160782,686.083740 
	C166.172211,686.040894 162.164566,685.738037 158.200455,686.028870 
	C154.270874,686.317078 153.061172,685.060181 153.094482,681.020081 
	C153.285034,657.910706 153.187454,634.799011 153.187698,611.688110 
	C153.187820,601.379639 153.282837,591.069824 153.132828,580.763550 
	C153.084991,577.476929 153.856094,576.002686 157.539688,576.026123 
	C182.976440,576.188232 208.414413,576.156372 234.336746,576.704529 
	C234.838516,590.140381 234.886444,603.058594 234.847763,615.976562 
	C234.839539,618.723022 234.963165,621.075256 238.682846,620.747925 
	C243.122269,620.357178 247.567322,620.030518 252.009949,619.676086 
	C267.091278,617.995911 281.411102,614.142395 293.426727,604.322632 
	C301.300323,597.887939 306.907196,589.651978 310.582825,580.222351 
	C311.816254,577.058228 313.438385,576.002441 316.799927,576.021484 
	C343.254578,576.171204 369.710266,576.131775 396.621490,576.605957 
	C395.713867,582.685242 394.692657,588.419250 392.924438,593.912842 
	C387.040558,612.193054 377.481598,628.252991 364.508636,642.563293 
	C353.318909,654.906555 340.133728,664.181885 325.117188,670.734131 
	C299.164246,682.058533 271.746765,686.205505 243.529800,686.012024 
	C219.074768,685.844360 194.617218,686.045593 170.160782,686.083740 
z"/>
<path fill="#78D87E" opacity="1.000000" stroke="none" 
	d="
M234.755463,478.718964 
	C208.792450,478.804901 182.829285,478.865417 156.866608,479.012573 
	C153.982819,479.028900 153.154083,477.790009 153.158310,475.102936 
	C153.206894,444.306213 153.212982,413.509277 153.142319,382.712616 
	C153.135803,379.872894 154.163834,378.938202 156.941940,378.965088 
	C193.051254,379.314514 229.201569,378.648834 265.258057,380.190918 
	C292.691864,381.364197 319.138550,388.379639 342.944061,402.943787 
	C354.804901,410.200256 364.911804,419.549591 373.714233,431.104462 
	C374.419281,431.688324 374.721069,431.850250 375.022827,432.012146 
	C375.022827,432.012146 375.003235,431.998871 375.000183,432.345032 
	C384.506500,446.881989 392.044556,461.964417 395.827667,478.745239 
	C367.870758,478.822662 339.911987,479.048340 311.960358,478.700745 
	C309.681854,478.672394 307.452026,474.729095 304.942139,472.083313 
	C304.501190,471.280792 304.244507,471.109406 303.914612,471.047546 
	C303.914612,471.047546 303.993195,471.018982 303.892822,470.803497 
	C303.511963,470.399750 303.231506,470.211456 302.951050,470.023163 
	C302.951050,470.023163 303.007355,470.025146 302.977600,469.694214 
	C295.688599,459.326843 286.104370,452.148987 274.134796,449.453857 
	C262.569336,446.849670 250.642761,445.835236 238.863770,444.202179 
	C235.355682,443.715790 234.812973,445.896210 234.831543,448.825226 
	C234.894760,458.789246 234.793762,468.754303 234.755463,478.718964 
z"/>
<path fill="#78D87D" opacity="1.000000" stroke="none" 
	d="
M822.979187,576.243835 
	C857.985168,576.217041 892.991150,576.190247 928.493591,576.637085 
	C934.408203,616.064941 921.030945,647.076172 889.084656,669.792786 
	C864.596924,687.205811 836.334961,692.101379 807.135132,691.655640 
	C788.142090,691.365784 769.361450,687.710999 751.666260,680.583191 
	C738.614380,675.325745 726.151489,668.605957 713.426208,662.537720 
	C707.188782,657.652588 700.951416,652.767395 694.409485,647.643738 
	C701.017639,639.687622 707.165039,632.275208 713.324585,624.872925 
	C720.776794,615.917114 728.195251,606.932678 735.712402,598.031616 
	C740.791565,592.017517 740.836487,592.100403 747.105896,596.608582 
	C761.850403,607.211121 777.878113,615.372009 795.569885,619.446960 
	C807.749756,622.252319 820.328491,622.982849 832.554321,619.021545 
	C843.017334,615.631409 847.324707,609.064087 846.982056,597.134766 
	C845.908142,590.692383 842.521484,586.878906 837.631897,584.218689 
	C832.747253,581.561157 827.863403,578.902161 822.979187,576.243835 
z"/>
<path fill="#78D87D" opacity="1.000000" stroke="none" 
	d="
M456.242737,662.104614 
	C450.193237,657.471191 444.143768,652.837708 437.644806,647.860046 
	C440.385895,644.413391 442.763367,641.307129 445.262299,638.301819 
	C456.846130,624.370850 468.578033,610.560669 479.992310,596.492493 
	C483.018829,592.762329 485.258026,592.776306 488.933899,595.517639 
	C505.104340,607.576965 522.859863,616.679504 542.789612,620.240845 
	C553.487122,622.152405 564.631531,622.787170 575.349976,619.213257 
	C586.079773,615.635620 590.420471,609.249084 590.065918,597.102905 
	C588.871948,590.514099 585.388062,586.611267 580.308411,583.926086 
	C575.531616,581.401123 570.787903,578.813354 566.029663,576.253235 
	C601.035217,576.220886 636.040710,576.188599 671.548828,576.619324 
	C672.400208,584.993713 673.420776,592.943787 672.967529,600.808960 
	C671.777161,621.461365 663.622314,639.471863 649.685364,654.569214 
	C632.685120,672.984924 611.426514,683.636047 586.784973,688.405212 
	C562.196472,693.164246 537.991455,692.397766 513.801697,686.392212 
	C493.334991,681.310913 474.075043,673.409485 456.242737,662.104614 
z"/>
<path fill="#78D87E" opacity="1.000000" stroke="none" 
	d="
M539.885742,478.783813 
	C511.088745,478.848419 482.291382,478.857819 453.495239,479.052032 
	C450.142059,479.074646 449.660797,477.360260 449.448212,474.833862 
	C448.090637,458.702393 450.631958,443.214966 458.651306,429.122498 
	C477.380066,396.210419 506.917267,379.905823 543.620850,375.090210 
	C579.476440,370.385834 612.705688,378.097626 643.336609,396.937256 
	C650.079468,401.084412 655.975098,406.638245 662.091492,411.747009 
	C663.151367,412.632233 663.362244,414.533844 663.637451,416.520386 
	C652.055237,431.052948 640.829224,445.054047 629.533813,458.998962 
	C624.349304,465.399445 624.232239,465.431061 617.253296,460.694977 
	C598.140320,447.724670 577.137329,441.700134 554.109619,444.226501 
	C548.678467,444.822357 543.015137,446.803864 538.289185,449.568024 
	C529.516052,454.699341 527.111206,470.748718 539.885742,478.783813 
z"/>
<path fill="#78D87E" opacity="1.000000" stroke="none" 
	d="
M796.223572,478.853302 
	C767.584839,478.894684 738.946045,478.903503 710.307617,479.024994 
	C707.257385,479.037933 706.337097,477.865021 706.143921,474.947357 
	C704.468201,449.642151 712.313965,427.816803 729.731567,409.401672 
	C748.856140,389.181946 772.659363,378.507477 799.969910,375.143097 
	C839.840576,370.231506 876.223083,379.191895 908.748718,402.991089 
	C912.362732,405.635468 915.732239,408.650482 918.974121,411.745941 
	C920.006165,412.731445 920.257568,414.534515 920.525024,416.461487 
	C908.652527,431.320312 897.097046,445.661713 885.602966,460.052185 
	C881.505737,465.181824 881.023254,465.402496 875.574280,461.701569 
	C865.481506,454.846527 854.793945,449.272186 842.855225,446.441315 
	C828.475098,443.031555 814.045532,441.778778 799.792969,446.954620 
	C794.051697,449.039551 790.281250,452.951263 788.617432,459.250763 
	C786.331177,467.906555 790.449829,473.583496 796.223572,478.853302 
z"/>
<path fill="#FEE185" opacity="1.000000" stroke="none" 
	d="
M170.157257,686.543579 
	C194.617218,686.045593 219.074768,685.844360 243.529800,686.012024 
	C271.746765,686.205505 299.164246,682.058533 325.117188,670.734131 
	C340.133728,664.181885 353.318909,654.906555 364.508636,642.563293 
	C377.481598,628.252991 387.040558,612.193054 392.924438,593.912842 
	C394.692657,588.419250 395.713867,582.685242 397.092834,576.667969 
	C403.550995,576.274597 409.993683,576.274597 417.366089,576.274597 
	C416.384399,582.465637 415.655609,588.159424 414.558990,593.781433 
	C410.518768,614.493774 402.595886,633.594971 389.678101,650.344971 
	C375.780609,668.365356 358.330048,681.745789 336.904236,689.991150 
	C314.606720,698.571899 291.585541,702.859314 267.772583,702.955811 
	C237.115295,703.080139 206.456757,702.918762 175.799866,703.086914 
	C171.493118,703.110535 169.658340,702.001404 170.086929,697.494202 
	C170.416687,694.026489 170.153336,690.502441 170.157257,686.543579 
z"/>
<path fill="#FEE185" opacity="1.000000" stroke="none" 
	d="
M713.209717,662.835449 
	C726.151489,668.605957 738.614380,675.325745 751.666260,680.583191 
	C769.361450,687.710999 788.142090,691.365784 807.135132,691.655640 
	C836.334961,692.101379 864.596924,687.205811 889.084656,669.792786 
	C921.030945,647.076172 934.408203,616.064941 928.949829,576.715332 
	C943.521057,576.038269 941.760986,573.497131 944.941406,587.749329 
	C954.159851,629.059753 937.799194,668.822998 898.945435,691.516907 
	C881.014465,701.990173 861.550537,706.375916 841.156067,708.173950 
	C809.497742,710.965027 779.658508,703.776733 751.377380,690.623779 
	C738.431274,684.602783 726.984741,675.333496 714.978149,667.356689 
	C713.870239,666.620544 713.634155,664.572144 713.209717,662.835449 
z"/>
<path fill="#FEE185" opacity="1.000000" stroke="none" 
	d="
M456.153015,662.476685 
	C474.075043,673.409485 493.334991,681.310913 513.801697,686.392212 
	C537.991455,692.397766 562.196472,693.164246 586.784973,688.405212 
	C611.426514,683.636047 632.685120,672.984924 649.685364,654.569214 
	C663.622314,639.471863 671.777161,621.461365 672.967529,600.808960 
	C673.420776,592.943787 672.400208,584.993713 672.009460,576.693237 
	C687.102600,575.916931 684.990417,574.019348 688.113098,587.669250 
	C697.437012,628.426880 680.980347,668.475525 642.816406,691.064270 
	C627.521851,700.116943 610.960938,704.635437 593.470947,707.194031 
	C558.636169,712.289917 525.863647,704.985779 494.609070,690.658630 
	C481.618500,684.703735 470.153748,675.390808 458.130554,667.401184 
	C456.953064,666.618713 456.729614,664.400513 456.153015,662.476685 
z"/>
<path fill="#FEE185" opacity="1.000000" stroke="none" 
	d="
M796.645874,478.909149 
	C790.449829,473.583496 786.331177,467.906555 788.617432,459.250763 
	C790.281250,452.951263 794.051697,449.039551 799.792969,446.954620 
	C814.045532,441.778778 828.475098,443.031555 842.855225,446.441315 
	C854.793945,449.272186 865.481506,454.846527 875.574280,461.701569 
	C881.023254,465.402496 881.505737,465.181824 885.602966,460.052185 
	C897.097046,445.661713 908.652527,431.320312 920.495117,416.824127 
	C925.899597,420.683746 931.007324,424.660645 936.080078,428.681549 
	C938.555603,430.643860 938.388550,432.571503 936.400208,435.031952 
	C925.737732,448.225616 915.246338,461.557373 904.636841,474.794128 
	C900.550232,479.892731 895.734558,480.718201 890.259216,477.109344 
	C872.026184,465.091736 852.100342,459.059265 830.282471,461.232880 
	C823.895508,461.869171 817.637268,464.731140 811.578552,467.206024 
	C809.547607,468.035583 807.179260,470.694916 806.934448,472.752289 
	C806.143799,479.395111 802.013306,479.558258 796.645874,478.909149 
z"/>
<path fill="#FEE185" opacity="1.000000" stroke="none" 
	d="
M540.330750,478.858459 
	C527.111206,470.748718 529.516052,454.699341 538.289185,449.568024 
	C543.015137,446.803864 548.678467,444.822357 554.109619,444.226501 
	C577.137329,441.700134 598.140320,447.724670 617.253296,460.694977 
	C624.232239,465.431061 624.349304,465.399445 629.533813,458.998962 
	C640.829224,445.054047 652.055237,431.052948 663.603943,416.887329 
	C668.986511,420.692352 674.088867,424.666962 679.156921,428.684906 
	C681.646729,430.658783 681.418884,432.634338 679.465881,435.057739 
	C668.932983,448.127289 658.553894,461.320679 648.050537,474.414276 
	C643.576416,479.991791 639.324158,480.543793 632.993530,476.992737 
	C627.355225,473.829956 621.741150,470.541229 615.831238,467.961029 
	C599.085144,460.649780 581.694946,458.643463 563.790955,462.887207 
	C556.401367,464.638702 550.766846,468.326569 548.829285,476.431671 
	C547.726868,481.043243 543.535767,478.256439 540.330750,478.858459 
z"/>
<path fill="#7AD97F" opacity="1.000000" stroke="none" 
	d="
M77.866226,547.336914 
	C76.954391,546.440308 75.256401,545.551453 75.247459,544.645935 
	C75.086998,528.380066 75.130760,512.112244 75.130760,495.047241 
	C88.871887,495.720703 102.961357,492.273712 113.697632,505.114319 
	C114.341957,506.096252 114.709625,506.540222 115.077286,506.984161 
	C115.077293,506.984161 115.007927,506.988617 115.078979,507.221069 
	C115.427437,507.653320 115.704834,507.853088 115.982224,508.052887 
	C115.982224,508.052887 115.999687,507.998077 115.943932,508.423706 
	C116.400963,512.122803 117.168922,515.379578 117.382912,518.672424 
	C118.374191,533.926575 111.683090,546.901184 93.316994,547.078369 
	C88.166389,547.128052 83.016464,547.248779 77.866226,547.336914 
M99.996880,510.047546 
	C99.996880,510.047546 99.940948,510.112885 99.671417,509.442047 
	C96.476578,508.130249 93.281738,506.818481 89.107002,505.104340 
	C89.107002,515.654785 89.038353,524.723450 89.239120,533.786072 
	C89.254944,534.500488 91.144653,535.173401 92.900269,535.910522 
	C97.928993,535.400330 101.327522,532.649597 102.420906,527.829834 
	C103.708656,522.153259 104.248085,516.352905 100.694626,510.574615 
	C100.505646,510.293732 100.244705,510.122253 99.996880,510.047546 
z"/>
<path fill="#7AD97F" opacity="1.000000" stroke="none" 
	d="
M731.925598,546.936279 
	C722.088257,540.329102 721.266113,525.310425 725.151428,516.668762 
	C729.321533,507.393768 736.565552,504.773132 748.123108,508.466034 
	C748.123108,505.738281 748.123169,503.125824 748.123169,500.513367 
	C748.123169,497.878571 748.123108,495.243805 748.123108,491.238190 
	C753.134888,491.924194 757.604126,492.535950 762.095337,494.035950 
	C762.117188,512.199524 762.117188,529.474854 762.117188,546.793640 
	C758.402893,547.009033 755.610107,547.171021 752.817383,547.333008 
	C752.463013,547.324646 752.108582,547.316345 751.320923,547.024292 
	C749.853638,546.221313 748.729675,545.132324 747.800903,545.278931 
	C743.163208,546.011475 738.576782,547.068237 733.972290,548.010986 
	C733.972290,548.010986 734.001526,547.994690 733.857788,547.731079 
	C733.117859,547.290405 732.521729,547.113342 731.925598,546.936279 
M741.509338,536.655701 
	C746.952942,537.046753 748.076599,536.101440 748.119080,530.870361 
	C748.145935,527.561584 748.028442,524.251648 747.976624,520.228699 
	C745.690369,516.771301 742.717529,516.357788 739.790405,519.040955 
	C735.579041,522.901245 736.379456,532.397522 741.509338,536.655701 
z"/>
<path fill="#7BD980" opacity="1.000000" stroke="none" 
	d="
M389.869354,561.589844 
	C389.000641,560.263977 387.391602,558.946533 387.376312,557.610901 
	C387.199341,542.133179 387.338867,526.652039 387.204346,511.173492 
	C387.174683,507.760071 388.564911,506.655304 391.667816,507.089508 
	C394.640594,507.505432 397.604889,507.981689 400.497131,509.077423 
	C412.292664,504.260742 416.055939,504.815765 423.878601,513.813477 
	C424.408966,514.592163 424.695648,514.820190 424.982330,515.048218 
	C424.982330,515.048218 424.998871,514.996277 424.937927,515.430603 
	C425.132446,516.991638 425.422913,518.111694 425.638153,519.246033 
	C428.625702,534.990295 422.146851,550.661072 404.764954,547.878174 
	C404.764954,547.878174 404.558777,547.778625 404.305756,547.458435 
	C403.175293,546.627686 402.297821,546.117126 401.133789,545.439819 
	C401.133789,548.543274 401.145233,551.036377 401.131683,553.529358 
	C401.084015,562.307922 401.805969,561.049377 393.812256,561.174561 
	C392.496094,561.195190 391.183563,561.445618 389.869354,561.589844 
M410.962830,520.146973 
	C408.893951,519.410522 406.442963,517.637817 404.860748,518.221191 
	C403.187897,518.838013 401.782501,521.561462 401.279419,523.614502 
	C400.671844,526.093872 401.283020,528.846252 401.096313,531.461121 
	C400.885895,534.408264 402.056976,536.160889 405.674957,536.963379 
	C407.687408,535.412231 411.025421,534.143372 411.428650,532.249573 
	C412.200714,528.623657 411.304352,524.642456 410.962830,520.146973 
z"/>
<path fill="#7BD97F" opacity="1.000000" stroke="none" 
	d="
M880.833069,512.442505 
	C884.411987,513.995117 888.266052,515.122925 891.495972,517.214539 
	C895.044067,519.512085 898.017395,522.697205 901.539307,526.201721 
	C902.885803,540.856812 896.249146,548.098572 882.265625,548.002625 
	C878.499573,547.976807 874.737549,547.361267 870.973633,547.016479 
	C870.973633,547.016479 870.999878,546.997070 870.865295,546.731506 
	C870.142639,546.311829 869.554565,546.157654 868.966492,546.003540 
	C868.966492,546.003540 869.005737,545.991211 868.858521,545.723267 
	C868.097595,545.330750 867.483826,545.206177 866.870117,545.081543 
	C865.441162,543.740967 864.012207,542.400330 862.428162,540.914185 
	C863.387512,539.567383 864.213562,538.565613 864.867676,537.461914 
	C867.576660,532.890686 870.507202,530.694763 875.797668,534.610718 
	C877.784973,536.081665 881.203552,535.961243 883.955872,535.904236 
	C885.228455,535.877869 886.468140,534.263733 887.722778,533.369446 
	C886.734131,532.434570 885.876282,531.278503 884.734375,530.602600 
	C879.491760,527.499756 873.526978,525.271362 869.015686,521.353821 
	C860.697632,514.130554 862.771484,502.062195 872.520752,496.868561 
	C881.634521,492.013458 892.428528,493.708069 900.396606,501.744812 
	C897.838074,504.645294 895.420959,507.068237 892.705444,509.236938 
	C889.141785,508.012390 885.923096,506.681519 882.588257,506.251862 
	C881.281555,506.083527 879.714661,507.935730 878.266235,508.867706 
	C879.121826,510.059296 879.977478,511.250916 880.833069,512.442505 
z"/>
<path fill="#7BD97F" opacity="1.000000" stroke="none" 
	d="
M572.891602,545.059143 
	C571.470032,543.722839 570.048401,542.386536 568.380615,540.818848 
	C570.537109,538.081543 572.274048,535.431213 574.503113,533.294250 
	C575.261902,532.566833 577.318909,532.861084 578.680176,533.158203 
	C582.494812,533.990723 586.218262,535.322449 590.061523,535.890503 
	C591.180725,536.055969 592.581482,534.316711 593.853210,533.450562 
	C592.870361,532.502075 592.025330,531.320129 590.881165,530.645081 
	C585.630798,527.547424 579.636353,525.348999 575.133362,521.423340 
	C566.394348,513.804688 569.151978,500.702545 579.920898,496.250458 
	C589.841797,492.148956 598.742065,494.079620 606.453247,501.745239 
	C603.873474,504.637085 601.438843,507.048767 598.709961,509.207306 
	C594.835327,508.059601 591.288574,506.889984 587.653137,506.446594 
	C586.630127,506.321808 585.005859,508.158356 584.364929,509.447144 
	C584.134033,509.911407 585.980225,511.408569 586.878479,512.434387 
	C590.186890,513.909363 593.626770,515.151123 596.768066,516.922363 
	C600.168396,518.839722 603.290222,521.251099 606.747864,524.030762 
	C607.317871,525.080200 607.673523,525.545837 608.029175,526.011475 
	C608.029175,526.011475 607.990967,526.004211 607.968506,526.444458 
	C608.641907,541.472778 602.296265,548.248779 587.692566,547.958679 
	C583.440491,547.874207 579.210327,546.681030 574.970154,545.996094 
	C574.970154,545.996094 575.003235,545.995117 574.862488,545.722168 
	C574.111694,545.319214 573.501648,545.189209 572.891602,545.059143 
z"/>
<path fill="#7CD97F" opacity="1.000000" stroke="none" 
	d="
M695.002197,547.325256 
	C694.562744,547.260437 694.123230,547.195618 693.322876,546.738647 
	C692.620361,545.329224 692.278748,544.311829 691.907104,543.205139 
	C683.801636,548.323059 683.801636,548.323059 674.069153,547.862610 
	C674.069153,547.862610 674.013794,547.946228 673.978638,547.703369 
	C673.724304,547.207214 673.448853,547.057434 673.117188,547.011169 
	C671.160828,543.313416 667.855103,539.734924 667.515930,535.894287 
	C666.692322,526.569580 667.248047,517.123047 667.248047,507.099457 
	C671.307312,507.099457 675.067200,506.987732 678.809570,507.193176 
	C679.564209,507.234589 680.252808,508.478394 680.988159,510.045532 
	C680.996216,517.502686 680.766724,524.094238 681.122437,530.653992 
	C681.221619,532.482605 683.050476,534.217468 684.085815,535.995300 
	C688.765808,536.668579 690.416260,534.303955 690.344849,529.955872 
	C690.254456,524.460144 690.319336,518.961670 690.324707,513.464417 
	C690.330933,507.087097 690.347229,506.848236 696.935547,507.202576 
	C699.527771,507.342041 703.078125,505.108215 704.790283,510.095642 
	C704.858154,522.787903 704.858154,534.629761 704.858154,546.811890 
	C701.172058,547.003906 698.087158,547.164551 695.002197,547.325256 
z"/>
<path fill="#7DD980" opacity="1.000000" stroke="none" 
	d="
M785.082581,562.215820 
	C784.388489,561.000854 783.106506,559.776001 783.126770,558.573059 
	C783.165100,556.298828 783.951660,554.037170 784.497437,551.436096 
	C785.480652,551.510193 786.386353,551.654968 787.288086,551.633606 
	C792.176636,551.518127 794.644897,547.866150 792.813721,543.111511 
	C788.754944,532.572998 784.537231,522.095703 780.398804,511.587830 
	C779.922913,510.379517 779.538696,509.135101 778.828674,507.092499 
	C783.065125,507.092499 787.015015,506.336243 790.431702,507.359863 
	C792.688110,508.035889 794.809875,510.992249 795.874817,513.418030 
	C797.843384,517.902466 798.991882,522.746887 801.622620,527.514343 
	C803.004944,522.404419 804.666809,517.349060 805.679565,512.166931 
	C806.464600,508.149658 808.255371,506.060730 812.339783,507.152100 
	C814.835022,507.818787 818.340088,504.873108 819.592651,509.833069 
	C815.346191,522.143677 811.313782,533.766907 807.347290,545.412720 
	C802.786804,558.802490 799.055908,561.647400 785.082581,562.215820 
z"/>
<path fill="#FEE186" opacity="1.000000" stroke="none" 
	d="
M235.237167,478.812805 
	C234.793762,468.754303 234.894760,458.789246 234.831543,448.825226 
	C234.812973,445.896210 235.355682,443.715790 238.863770,444.202179 
	C250.642761,445.835236 262.569336,446.849670 274.134796,449.453857 
	C286.104370,452.148987 295.688599,459.326843 302.955261,469.711426 
	C296.309418,468.190460 289.751465,465.782562 282.979431,464.584351 
	C273.880402,462.974335 264.626923,462.169159 255.408005,461.398254 
	C254.349854,461.309784 252.208023,463.567230 252.081970,464.882080 
	C251.658905,469.294617 251.921265,473.772888 251.921265,478.906677 
	C246.210861,478.906677 240.964859,478.906677 235.237167,478.812805 
z"/>
<path fill="#7AD97F" opacity="1.000000" stroke="none" 
	d="
M340.048889,546.985107 
	C333.789825,541.844543 329.323059,535.933350 329.678894,527.155457 
	C330.047607,518.059692 334.012421,511.112732 341.454956,508.024567 
	C350.040436,504.462250 357.836121,506.157715 364.598389,513.075073 
	C365.294342,513.786926 365.924072,514.563538 366.845337,515.850037 
	C367.390381,516.618286 367.674591,516.846619 367.958801,517.074951 
	C367.958801,517.074951 367.984100,517.007202 367.935364,517.442627 
	C368.182312,519.172424 368.501709,520.461975 368.770020,521.761963 
	C371.994049,537.382385 362.182251,549.173523 346.904114,547.984009 
	C344.607025,547.805176 342.333374,547.325562 340.048889,546.985107 
M353.048187,519.285278 
	C349.981659,515.787354 347.229126,516.877319 345.079559,520.153564 
	C342.602875,523.928467 343.804901,532.722717 347.523926,536.743652 
	C351.492218,538.005127 354.140198,535.986267 354.420013,532.477234 
	C354.747894,528.365479 353.729767,524.146362 353.048187,519.285278 
z"/>
<path fill="#7CD97F" opacity="1.000000" stroke="none" 
	d="
M166.954605,537.114258 
	C167.374008,537.970581 167.793427,538.826904 168.540375,540.174133 
	C169.252747,541.115356 169.637604,541.565613 170.022461,542.015930 
	C170.022461,542.015930 170.000214,542.000183 169.923676,542.339539 
	C167.784622,544.087830 165.823120,546.492554 163.640167,546.713867 
	C157.718231,547.314453 151.702408,546.989258 145.723801,547.031067 
	C131.832153,538.670654 132.835083,521.229797 139.505325,513.247986 
	C147.820312,503.298126 162.065033,503.829163 169.558563,515.225098 
	C170.545700,518.904541 171.567657,521.928406 171.806290,525.012756 
	C172.260101,530.877991 171.147247,531.867798 165.324997,531.874634 
	C159.973709,531.880859 154.622406,531.875977 149.271118,531.875977 
	C148.725632,532.720642 148.180145,533.565308 147.634659,534.409973 
	C149.021881,534.976562 150.409088,535.543091 152.060486,536.389038 
	C155.709244,536.757019 159.093994,536.839478 162.478302,536.937195 
	C163.970871,536.980286 165.462524,537.054321 166.954605,537.114258 
M150.635056,517.987793 
	C150.203278,519.408569 149.771500,520.829407 149.339722,522.250183 
	C150.855026,522.180969 152.372284,522.140198 153.885117,522.035217 
	C155.721161,521.907837 157.553452,521.726257 159.376999,521.569092 
	C158.696304,516.889404 157.655243,516.302795 150.635056,517.987793 
z"/>
<path fill="#7BD97F" opacity="1.000000" stroke="none" 
	d="
M250.772598,546.036499 
	C238.838791,537.815735 239.101242,523.369629 244.490433,515.102051 
	C250.699417,505.576843 266.181122,501.357391 275.862488,514.770264 
	C276.389709,515.571167 276.683441,515.810730 276.977142,516.050293 
	C276.977142,516.050293 276.996735,515.996765 276.916016,516.434326 
	C277.219330,519.641846 277.834198,522.402954 277.941010,525.183594 
	C278.189392,531.649963 277.897369,531.855713 271.474731,531.863342 
	C266.121429,531.869690 260.768127,531.864685 254.814407,531.864685 
	C255.491928,533.358887 255.641617,534.015625 256.030304,534.466370 
	C256.556488,535.076599 257.266052,535.528625 258.153442,536.330627 
	C260.742249,537.033386 263.084381,537.831848 265.404205,537.771667 
	C267.881927,537.707336 270.338562,536.832581 272.804413,536.311584 
	C273.018005,536.850891 273.231628,537.390198 273.708679,538.397583 
	C274.331573,539.242065 274.691071,539.618469 275.050568,539.994934 
	C275.050568,539.994934 274.998077,540.002808 275.056519,540.243225 
	C275.398193,540.676697 275.681396,540.869690 275.964600,541.062683 
	C275.964600,541.062683 275.994751,541.004333 275.927704,541.387451 
	C273.934296,543.457397 272.149323,546.356262 270.054626,546.600647 
	C264.105591,547.294739 258.030090,546.904907 252.004395,546.941772 
	C252.004395,546.941772 251.996552,546.999573 251.914520,546.726074 
	C251.479202,546.313904 251.125900,546.175171 250.772598,546.036499 
M264.213226,520.807678 
	C265.985901,517.078674 263.098694,516.996826 260.929474,517.029419 
	C257.654968,517.078613 254.759842,517.997009 255.401031,523.261414 
	C258.337158,522.425964 260.884979,521.701050 264.213226,520.807678 
z"/>
<path fill="#7BD97F" opacity="1.000000" stroke="none" 
	d="
M453.759796,546.995239 
	C443.196747,538.204468 440.316162,529.235962 444.735718,518.299683 
	C447.686310,510.998352 453.569153,507.011414 461.070374,506.269196 
	C467.872559,505.596130 473.736237,508.197784 477.611877,515.196167 
	C478.595856,519.351440 479.450195,522.862793 479.885529,526.425232 
	C480.352570,530.247314 478.806274,532.178589 474.522797,531.941711 
	C468.848602,531.627930 463.144043,531.864380 457.452515,531.864380 
	C457.298706,532.272766 457.144897,532.681152 456.991089,533.089539 
	C457.838379,533.860535 458.685669,534.631531 459.711975,535.726746 
	C463.289337,536.420532 466.680817,536.912476 470.089172,537.103943 
	C471.618561,537.189941 473.181671,536.674622 474.729492,536.432129 
	C474.949219,536.962280 475.168915,537.492371 475.668396,538.476440 
	C476.309418,539.290527 476.670654,539.650696 477.031860,540.010864 
	C477.031860,540.010864 476.995239,540.002869 476.993164,540.295410 
	C477.344543,541.056458 477.697968,541.524902 478.051392,541.993347 
	C478.051392,541.993347 477.997345,541.993713 477.949951,542.333618 
	C475.840607,544.084900 473.878296,546.497803 471.697388,546.714905 
	C465.767639,547.305115 459.745392,546.966064 453.759796,546.995239 
M458.679626,518.011047 
	C458.018646,519.315369 457.357697,520.619690 456.696716,521.923950 
	C456.988892,522.297852 457.281067,522.671692 457.573242,523.045593 
	C460.648651,522.200500 463.724030,521.355469 467.264404,520.382629 
	C465.697449,515.695007 462.425507,516.880127 458.679626,518.011047 
z"/>
<path fill="#7BD97F" opacity="1.000000" stroke="none" 
	d="
M1003.793335,545.988159 
	C994.259521,537.980957 991.458923,526.450928 996.663208,516.793091 
	C1002.597473,505.780823 1018.084106,501.587555 1027.803467,513.091309 
	C1028.286499,513.868713 1028.541870,514.057373 1028.885498,514.126465 
	C1028.885498,514.126465 1028.942017,514.008789 1028.923828,514.356323 
	C1029.270020,515.148132 1029.634277,515.592285 1029.998535,516.036499 
	C1029.998535,516.036499 1030.010498,515.993469 1029.959839,516.418152 
	C1030.266846,520.134705 1030.623535,523.426575 1030.982178,526.718384 
	C1031.397827,530.532104 1029.898682,532.133179 1025.877441,531.935669 
	C1020.155090,531.654541 1014.408569,531.864197 1007.266418,531.864197 
	C1009.147339,533.942078 1010.072266,534.963867 1011.243530,536.271973 
	C1013.329895,537.019226 1015.199463,537.948914 1017.003357,537.835327 
	C1019.979736,537.648010 1022.913635,536.786682 1025.865479,536.209412 
	C1026.201294,536.895386 1026.537231,537.581360 1027.087158,538.809937 
	C1027.863770,539.914307 1028.426514,540.476135 1028.989136,541.037964 
	C1028.989136,541.037964 1029.006104,540.997864 1028.960205,541.379517 
	C1027.626221,543.223511 1026.616699,545.244690 1025.001099,546.050171 
	C1018.548584,549.267395 1011.753052,548.067871 1005.023682,546.914978 
	C1005.023682,546.914978 1005.004944,546.984680 1004.928833,546.703064 
	C1004.499634,546.276978 1004.146484,546.132568 1003.793335,545.988159 
M1013.484985,522.008118 
	C1015.216309,521.419983 1016.947632,520.831848 1018.678955,520.243713 
	C1018.736267,519.656067 1018.793640,519.068420 1018.850952,518.480774 
	C1016.602539,518.020874 1014.183472,516.840027 1012.157288,517.319458 
	C1010.404236,517.734253 1009.097107,520.033997 1007.592834,521.500488 
	C1007.926941,521.951721 1008.261047,522.402893 1008.595154,522.854065 
	C1010.001587,522.711365 1011.408081,522.568726 1013.484985,522.008118 
z"/>
<path fill="#7DD97F" opacity="1.000000" stroke="none" 
	d="
M200.751312,547.364136 
	C199.929581,546.886780 198.589752,546.583130 198.362854,545.906311 
	C194.102036,533.197815 189.973129,520.445007 185.618134,507.092834 
	C190.046280,507.092834 193.956818,506.271637 197.221786,507.369812 
	C199.555801,508.154846 201.801300,511.234802 202.717499,513.782898 
	C204.662384,519.191833 205.713943,524.921997 208.223907,530.683228 
	C209.902451,524.046265 211.462036,517.375061 213.354050,510.799500 
	C213.760376,509.387268 215.550781,507.164215 216.391235,507.296661 
	C219.899979,507.849609 224.125809,504.857819 226.676559,509.826019 
	C222.959381,521.514832 219.434891,532.497498 216.069443,543.528687 
	C215.266266,546.161255 213.944870,547.266602 211.128601,547.139343 
	C207.679932,546.983582 204.211304,547.269287 200.751312,547.364136 
z"/>
<path fill="#7CD97F" opacity="1.000000" stroke="none" 
	d="
M973.903076,537.032227 
	C975.795227,537.820984 977.687317,538.609741 979.744019,540.133606 
	C980.110535,542.781677 980.312561,544.694702 980.659363,547.978516 
	C975.116943,547.978516 970.051331,547.978516 964.985657,547.978516 
	C964.985657,547.978516 964.992432,548.011597 964.903442,547.745239 
	C964.461487,547.356201 964.108521,547.233521 963.755554,547.110901 
	C957.101074,542.601746 956.553162,535.688416 956.244751,528.559265 
	C956.066223,524.431091 957.861145,519.615723 951.805054,517.211609 
	C950.599304,516.733032 951.198730,511.707153 950.934692,508.387115 
	C955.808044,508.061218 958.647827,506.195190 958.376953,501.068054 
	C958.254578,498.751495 959.063049,496.357605 962.449097,496.870239 
	C965.850098,497.385071 970.933655,494.948395 971.522217,500.672699 
	C971.994690,505.268097 972.993286,507.934326 978.188171,507.243164 
	C978.646484,507.182190 979.291260,508.522980 979.884155,510.046753 
	C979.918823,513.135742 979.918823,515.390686 979.918823,517.737671 
	C976.495544,517.957581 973.905823,518.123901 970.935608,518.314697 
	C970.935608,523.691406 970.747803,528.667786 971.071045,533.610779 
	C971.149292,534.807922 972.913879,535.894714 973.903076,537.032227 
z"/>
<path fill="#7AD97F" opacity="1.000000" stroke="none" 
	d="
M643.130554,536.942444 
	C645.063416,537.747375 646.996216,538.552368 649.029663,540.071533 
	C650.730774,547.064209 650.127136,547.997131 643.568665,547.974670 
	C640.013062,547.962524 636.459412,547.349487 632.904907,547.007446 
	C628.088440,543.478516 626.182373,538.546143 626.085266,532.766418 
	C626.035095,529.779175 626.232483,526.776245 625.981445,523.808838 
	C625.852234,522.281067 625.401794,519.961243 624.382690,519.464966 
	C618.997192,516.842407 621.363525,512.396301 620.893616,508.308441 
	C624.311462,507.699127 627.669128,507.547089 627.385437,502.955688 
	C627.065796,497.781830 629.938232,496.082642 634.787415,496.850250 
	C636.223633,497.077637 637.726318,496.885284 639.327271,496.885284 
	C639.793518,498.404846 640.445862,499.619690 640.496460,500.859131 
	C640.681335,505.380920 642.298645,508.063080 647.423462,507.243134 
	C647.865662,507.172363 648.529541,508.486816 649.093506,510.007355 
	C649.096619,513.103027 649.096619,515.349121 649.096619,517.723206 
	C645.710388,517.943176 643.124268,518.111206 640.040039,518.311584 
	C640.040039,523.355652 639.806519,528.137207 640.181946,532.870422 
	C640.295044,534.296692 642.100403,535.588867 643.130554,536.942444 
z"/>
<path fill="#7BD87E" opacity="1.000000" stroke="none" 
	d="
M313.808319,537.057007 
	C314.106049,537.833740 314.403809,538.610413 314.814209,540.126526 
	C315.237549,548.146606 315.237457,548.152832 307.974213,548.048035 
	C306.332336,548.024353 304.691345,547.941467 303.049927,547.885864 
	C303.049927,547.885925 303.007690,547.957153 302.968811,547.716003 
	C302.702637,547.215088 302.417480,547.066345 302.074493,547.028503 
	C300.334473,543.778687 297.213013,540.579407 297.091919,537.270386 
	C296.547333,522.387024 296.854492,507.472504 296.854492,491.193451 
	C301.511780,491.907196 306.102234,492.610687 310.774475,494.176483 
	C310.857544,507.527618 310.844849,520.016541 310.873718,532.505249 
	C310.878571,534.593262 310.344604,537.146790 313.808319,537.057007 
z"/>
<path fill="#FEE287" opacity="1.000000" stroke="none" 
	d="
M251.991882,619.234436 
	C247.567322,620.030518 243.122269,620.357178 238.682846,620.747925 
	C234.963165,621.075256 234.839539,618.723022 234.847763,615.976562 
	C234.886444,603.058594 234.838516,590.140381 234.781311,576.786621 
	C239.197708,576.251282 243.663010,576.288696 248.107895,576.005432 
	C251.293381,575.802368 251.995483,577.222412 251.974533,580.099243 
	C251.880676,592.996399 251.958160,605.894836 251.991882,619.234436 
z"/>
<path fill="#7DD981" opacity="1.000000" stroke="none" 
	d="
M500.888855,547.323547 
	C499.989716,546.415833 498.320892,545.519043 498.307770,544.598694 
	C498.133514,532.363037 498.191376,520.123962 498.191376,507.047546 
	C502.692169,508.179932 507.420532,504.292908 510.916016,509.793610 
	C511.186035,510.218567 514.074219,509.182953 515.631165,508.546692 
	C519.443176,506.988922 523.136108,503.841888 527.077026,508.936096 
	C526.315979,512.713928 525.604736,515.713745 524.912415,518.633850 
	C515.661072,517.864990 512.153442,521.158264 512.137634,530.133301 
	C512.127808,535.671265 512.135742,541.209290 512.135742,546.832092 
	C507.789581,547.021973 504.339203,547.172729 500.888855,547.323547 
z"/>
<path fill="#7BD87E" opacity="1.000000" stroke="none" 
	d="
M922.965149,547.334045 
	C922.229187,546.607239 920.859375,545.887085 920.851624,545.152710 
	C920.719971,532.648865 920.757263,520.143372 920.757263,507.103058 
	C925.119629,507.103058 928.887817,506.989349 932.638000,507.198090 
	C933.396667,507.240356 934.087463,508.502075 934.850952,510.066650 
	C934.892395,522.794250 934.892395,534.656860 934.892395,547.334045 
	C930.473389,547.334045 926.719238,547.334045 922.965149,547.334045 
z"/>
<path fill="#FDE289" opacity="1.000000" stroke="none" 
	d="
M822.520874,576.167114 
	C827.863403,578.902161 832.747253,581.561157 837.631897,584.218689 
	C842.521484,586.878906 845.908142,590.692383 846.887817,596.700806 
	C830.599243,590.345337 814.350464,583.613098 798.101685,576.880859 
	C798.118225,576.617310 798.134766,576.353821 798.151367,576.090332 
	C806.121704,576.090332 814.092102,576.090332 822.520874,576.167114 
z"/>
<path fill="#FDE289" opacity="1.000000" stroke="none" 
	d="
M565.566528,576.173950 
	C570.787903,578.813354 575.531616,581.401123 580.308411,583.926086 
	C585.388062,586.611267 588.871948,590.514099 589.973511,596.661621 
	C573.912903,590.383118 557.875061,583.726685 541.837280,577.070251 
	C541.903320,576.745056 541.969360,576.419922 542.035400,576.094727 
	C549.724792,576.094727 557.414124,576.094727 565.566528,576.173950 
z"/>
<path fill="#FDE288" opacity="1.000000" stroke="none" 
	d="
M396.294006,478.832642 
	C392.044556,461.964417 384.506500,446.881989 374.994690,432.334564 
	C378.874603,435.677765 383.130981,439.062378 386.566132,443.139008 
	C395.321136,453.529083 402.427490,464.967590 407.518829,478.920074 
	C403.454010,478.920074 400.107178,478.920074 396.294006,478.832642 
z"/>
<path fill="#F9E28A" opacity="1.000000" stroke="none" 
	d="
M785.089966,562.607544 
	C799.055908,561.647400 802.786804,558.802490 807.347290,545.412720 
	C811.313782,533.766907 815.346191,522.143677 819.585999,510.252014 
	C821.926514,509.957611 823.507202,510.204010 822.466309,513.058777 
	C817.202759,527.494751 812.407410,542.117188 806.647522,556.350281 
	C803.473511,564.193420 794.776062,567.238220 786.462830,564.786987 
	C785.882385,564.615845 785.546753,563.614502 785.089966,562.607544 
z"/>
<path fill="#F8E28A" opacity="1.000000" stroke="none" 
	d="
M77.915779,547.733276 
	C83.016464,547.248779 88.166389,547.128052 93.316994,547.078369 
	C111.683090,546.901184 118.374191,533.926575 117.382912,518.672424 
	C117.168922,515.379578 116.400963,512.122803 115.915497,508.427979 
	C121.051430,513.684875 121.474609,520.714050 120.664101,527.612915 
	C118.862350,542.948914 110.405243,550.021484 94.840370,550.042847 
	C90.511848,550.048828 86.175308,550.191101 81.859566,549.956299 
	C80.532288,549.884094 79.261818,548.767822 77.915779,547.733276 
z"/>
<path fill="#F4E188" opacity="1.000000" stroke="none" 
	d="
M500.941101,547.716858 
	C504.339203,547.172729 507.789581,547.021973 512.135742,546.832092 
	C512.135742,541.209290 512.127808,535.671265 512.137634,530.133301 
	C512.153442,521.158264 515.661072,517.864990 524.912415,518.633850 
	C525.604736,515.713745 526.315979,512.713928 527.135864,509.320770 
	C533.066956,511.306427 528.525024,515.422119 528.737549,518.677734 
	C528.912720,521.360962 526.869263,521.902588 524.310730,521.908264 
	C518.154114,521.921997 515.285156,524.879822 515.159058,531.100952 
	C515.035828,537.180603 515.132202,543.264771 515.132202,549.988464 
	C510.691833,549.988464 506.775543,550.074036 502.870331,549.904175 
	C502.219879,549.875977 501.617767,548.736267 500.941101,547.716858 
z"/>
<path fill="#F8E289" opacity="1.000000" stroke="none" 
	d="
M200.851227,547.745972 
	C204.211304,547.269287 207.679932,546.983582 211.128601,547.139343 
	C213.944870,547.266602 215.266266,546.161255 216.069443,543.528687 
	C219.434891,532.497498 222.959381,521.514832 226.676514,510.250183 
	C229.173981,509.873474 230.552078,510.548950 229.721619,513.141418 
	C226.035019,524.649902 222.344574,536.157227 218.630402,547.656799 
	C218.431198,548.273621 218.122650,548.946411 217.660767,549.370911 
	C215.867340,551.019409 202.939819,550.010010 200.851227,547.745972 
z"/>
<path fill="#F4E188" opacity="1.000000" stroke="none" 
	d="
M752.901733,547.716675 
	C755.610107,547.171021 758.402893,547.009033 762.117188,546.793640 
	C762.117188,529.474854 762.117188,512.199524 762.200928,494.467133 
	C763.214783,494.880066 764.948425,495.742798 764.956421,496.621094 
	C765.115295,514.165039 765.075012,531.710815 765.075012,550.883728 
	C760.588989,549.850891 756.787476,548.975647 752.901733,547.716675 
z"/>
<path fill="#F8E289" opacity="1.000000" stroke="none" 
	d="
M340.268005,547.255493 
	C342.333374,547.325562 344.607025,547.805176 346.904114,547.984009 
	C362.182251,549.173523 371.994049,537.382385 368.770020,521.761963 
	C368.501709,520.461975 368.182312,519.172424 367.900024,517.450195 
	C374.404724,524.780823 374.158844,536.830322 367.345123,544.869446 
	C361.252716,552.057556 350.198792,553.150818 340.268005,547.255493 
z"/>
<path fill="#F4E28B" opacity="1.000000" stroke="none" 
	d="
M404.976379,548.208008 
	C422.146851,550.661072 428.625702,534.990295 425.638153,519.246033 
	C425.422913,518.111694 425.132446,516.991638 424.911316,515.436646 
	C433.775024,524.491028 430.323914,544.689392 418.759949,549.932556 
	C414.214478,551.993469 409.388123,552.128967 404.976379,548.208008 
z"/>
<path fill="#7DD981" opacity="1.000000" stroke="none" 
	d="
M923.911194,502.056213 
	C919.497009,498.152069 918.700134,493.824615 921.820435,490.702332 
	C925.457825,487.062561 930.155762,487.646057 934.877319,493.016357 
	C935.373047,498.013885 934.271545,501.398376 929.381531,502.043732 
	C927.588806,502.280304 925.736389,502.065247 923.911194,502.056213 
z"/>
<path fill="#F9E28A" opacity="1.000000" stroke="none" 
	d="
M575.104370,546.326538 
	C579.210327,546.681030 583.440491,547.874207 587.692566,547.958679 
	C602.296265,548.248779 608.641907,541.472778 607.974976,526.426086 
	C614.062866,532.263000 611.811890,543.858887 603.196594,548.260193 
	C593.742981,553.089722 584.270081,552.232117 575.104370,546.326538 
z"/>
<path fill="#F9E28A" opacity="1.000000" stroke="none" 
	d="
M871.090881,547.360840 
	C874.737549,547.361267 878.499573,547.976807 882.265625,548.002625 
	C896.249146,548.098572 902.885803,540.856812 901.739807,526.460083 
	C907.350220,530.628662 906.192566,541.437683 899.423828,546.724426 
	C892.194458,552.370972 879.489807,552.812561 871.090881,547.360840 
z"/>
<path fill="#FCE593" opacity="1.000000" stroke="none" 
	d="
M923.000977,547.725586 
	C926.719238,547.334045 930.473389,547.334045 934.892395,547.334045 
	C934.892395,534.656860 934.892395,522.794250 934.931396,510.463562 
	C935.944397,510.961670 937.750183,511.914520 937.765991,512.896118 
	C937.960083,524.971741 937.892456,537.051514 937.892456,549.932434 
	C932.677490,549.098389 927.591980,552.415833 923.000977,547.725586 
z"/>
<path fill="#FCE593" opacity="1.000000" stroke="none" 
	d="
M695.086975,547.689209 
	C698.087158,547.164551 701.172058,547.003906 704.858154,546.811890 
	C704.858154,534.629761 704.858154,522.787903 704.891846,510.478699 
	C705.918701,510.960876 707.760315,511.896576 707.775940,512.861877 
	C707.972351,524.981873 707.904785,537.106079 707.904785,549.971313 
	C703.326660,549.254883 698.909668,552.218567 695.086975,547.689209 
z"/>
<path fill="#FFE697" opacity="1.000000" stroke="none" 
	d="
M313.843323,536.586182 
	C310.344604,537.146790 310.878571,534.593262 310.873718,532.505249 
	C310.844849,520.016541 310.857544,507.527618 310.882202,494.582581 
	C314.467773,493.748962 313.900208,496.309418 313.901245,498.393829 
	C313.907379,510.967682 313.888702,523.541504 313.843323,536.586182 
z"/>
<path fill="#FCE593" opacity="1.000000" stroke="none" 
	d="
M151.796326,536.109680 
	C150.409088,535.543091 149.021881,534.976562 147.634659,534.409973 
	C148.180145,533.565308 148.725632,532.720642 149.271118,531.875977 
	C154.622406,531.875977 159.973709,531.880859 165.324997,531.874634 
	C171.147247,531.867798 172.260101,530.877991 171.806290,525.012756 
	C171.567657,521.928406 170.545700,518.904541 169.786835,515.459595 
	C173.743973,518.470886 176.990311,529.268005 174.391769,533.031616 
	C173.398834,534.469666 170.110550,534.322937 166.967285,534.923584 
	C161.309631,535.335754 156.552979,535.722717 151.796326,536.109680 
z"/>
<path fill="#FCE593" opacity="1.000000" stroke="none" 
	d="
M973.910217,536.562561 
	C972.913879,535.894714 971.149292,534.807922 971.071045,533.610779 
	C970.747803,528.667786 970.935608,523.691406 970.935608,518.314697 
	C973.905823,518.123901 976.495544,517.957581 979.918823,517.737671 
	C979.918823,515.390686 979.918823,513.135742 979.962585,510.433105 
	C980.975525,510.790894 982.641052,511.491852 982.780579,512.421753 
	C983.166016,514.990723 982.913879,517.655396 982.913879,520.714417 
	C979.906860,520.911560 977.329468,521.080505 973.917358,521.304138 
	C973.917358,526.277344 973.917358,531.185120 973.910217,536.562561 
z"/>
<path fill="#FDE288" opacity="1.000000" stroke="none" 
	d="
M643.104736,536.479614 
	C642.100403,535.588867 640.295044,534.296692 640.181946,532.870422 
	C639.806519,528.137207 640.040039,523.355652 640.040039,518.311584 
	C643.124268,518.111206 645.710388,517.943176 649.096619,517.723206 
	C649.096619,515.349121 649.096619,513.103027 649.167908,510.410034 
	C650.180359,510.794281 651.793152,511.526337 651.933289,512.475708 
	C652.311523,515.038147 652.062744,517.693176 652.062744,520.696350 
	C649.033752,520.889832 646.450562,521.054749 643.078857,521.270081 
	C643.078857,526.215332 643.078857,531.116028 643.104736,536.479614 
z"/>
<path fill="#F4E28B" opacity="1.000000" stroke="none" 
	d="
M389.955017,561.953552 
	C391.183563,561.445618 392.496094,561.195190 393.812256,561.174561 
	C401.805969,561.049377 401.084015,562.307922 401.131683,553.529358 
	C401.145233,551.036377 401.133789,548.543274 401.133789,545.439819 
	C402.297821,546.117126 403.175293,546.627686 404.191833,547.447693 
	C404.505280,552.028259 404.634155,556.301880 404.871490,560.569519 
	C405.008728,563.037903 404.149597,564.472900 401.498199,564.104126 
	C397.670227,563.571655 393.859039,562.918762 389.955017,561.953552 
z"/>
<path fill="#FAE38B" opacity="1.000000" stroke="none" 
	d="
M459.532959,535.402466 
	C458.685669,534.631531 457.838379,533.860535 456.991089,533.089539 
	C457.144897,532.681152 457.298706,532.272766 457.452515,531.864380 
	C463.144043,531.864380 468.848602,531.627930 474.522797,531.941711 
	C478.806274,532.178589 480.352570,530.247314 479.885529,526.425232 
	C479.450195,522.862793 478.595856,519.351440 477.847351,515.424316 
	C481.688263,518.441650 484.957642,528.900024 482.496002,532.495239 
	C481.528961,533.907532 478.226074,533.720520 475.085175,534.213013 
	C469.299896,534.576965 464.416443,534.989685 459.532959,535.402466 
z"/>
<path fill="#FAE38B" opacity="1.000000" stroke="none" 
	d="
M1010.997192,535.985657 
	C1010.072266,534.963867 1009.147339,533.942078 1007.266418,531.864197 
	C1014.408569,531.864197 1020.155090,531.654541 1025.877441,531.935669 
	C1029.898682,532.133179 1031.397827,530.532104 1030.982178,526.718384 
	C1030.623535,523.426575 1030.266846,520.134705 1029.937622,516.415466 
	C1033.322510,519.538452 1035.920654,529.287048 1033.566162,532.515869 
	C1032.528442,533.939087 1029.251953,533.729797 1026.088135,534.213013 
	C1021.572632,534.133362 1017.951538,533.948547 1014.353943,534.160645 
	C1013.203186,534.228577 1012.114380,535.347595 1010.997192,535.985657 
z"/>
<path fill="#FAE38B" opacity="1.000000" stroke="none" 
	d="
M257.896973,536.048523 
	C257.266052,535.528625 256.556488,535.076599 256.030304,534.466370 
	C255.641617,534.015625 255.491928,533.358887 254.814407,531.864685 
	C260.768127,531.864685 266.121429,531.869690 271.474731,531.863342 
	C277.897369,531.855713 278.189392,531.649963 277.941010,525.183594 
	C277.834198,522.402954 277.219330,519.641846 276.888458,516.441650 
	C281.314545,520.659424 281.570404,526.447937 280.565796,532.133057 
	C280.377808,533.196777 276.282013,533.569946 273.086792,534.213013 
	C268.712738,534.132935 265.228668,533.919067 261.776825,534.162476 
	C260.445801,534.256348 259.188080,535.389099 257.896973,536.048523 
z"/>
<path fill="#F8E28A" opacity="1.000000" stroke="none" 
	d="
M252.150635,547.269409 
	C258.030090,546.904907 264.105591,547.294739 270.054626,546.600647 
	C272.149323,546.356262 273.934296,543.457397 275.895294,541.392578 
	C280.145172,546.609375 279.881287,547.753052 273.228607,549.734253 
	C266.018158,551.881470 258.860413,552.341248 252.150635,547.269409 
z"/>
<path fill="#FAE38B" opacity="1.000000" stroke="none" 
	d="
M453.974365,547.299072 
	C459.745392,546.966064 465.767639,547.305115 471.697388,546.714905 
	C473.878296,546.497803 475.840607,544.084900 477.968811,542.314148 
	C479.086304,543.297180 480.137543,544.639526 481.163269,545.949341 
	C473.785522,552.410095 462.242950,552.960876 453.974365,547.299072 
z"/>
<path fill="#F8E28A" opacity="1.000000" stroke="none" 
	d="
M1005.202820,547.224304 
	C1011.753052,548.067871 1018.548584,549.267395 1025.001099,546.050171 
	C1026.616699,545.244690 1027.626221,543.223511 1028.938477,541.378418 
	C1033.373779,545.768555 1033.024292,547.409363 1027.099487,549.466248 
	C1019.577942,552.077454 1012.275391,552.061707 1005.202820,547.224304 
z"/>
<path fill="#FAE38B" opacity="1.000000" stroke="none" 
	d="
M145.940826,547.334961 
	C151.702408,546.989258 157.718231,547.314453 163.640167,546.713867 
	C165.823120,546.492554 167.784622,544.087830 169.922607,542.325989 
	C171.047531,543.324829 172.096970,544.676636 173.109863,545.981323 
	C165.637650,552.404480 154.256088,552.953552 145.940826,547.334961 
z"/>
<path fill="#FDE289" opacity="1.000000" stroke="none" 
	d="
M684.063110,535.526855 
	C683.050476,534.217468 681.221619,532.482605 681.122437,530.653992 
	C680.766724,524.094238 680.996216,517.502686 681.057617,510.457642 
	C684.163574,509.731140 683.989502,511.805878 683.986511,513.864319 
	C683.976379,520.929016 684.018250,527.993713 684.063110,535.526855 
z"/>
<path fill="#F9E28A" opacity="1.000000" stroke="none" 
	d="
M633.073853,547.329224 
	C636.459412,547.349487 640.013062,547.962524 643.568665,547.974670 
	C650.127136,547.997131 650.730774,547.064209 649.127869,540.397583 
	C654.039612,540.847717 651.926514,545.190552 652.724609,547.937988 
	C652.880310,548.474243 649.827759,550.744629 648.162109,550.858765 
	C642.971497,551.214111 637.460693,552.145569 633.073853,547.329224 
z"/>
<path fill="#F9E28A" opacity="1.000000" stroke="none" 
	d="
M965.124878,548.325439 
	C970.051331,547.978516 975.116943,547.978516 980.659363,547.978516 
	C980.312561,544.694702 980.110535,542.781677 979.909912,540.469727 
	C981.486450,542.962280 983.061584,545.853638 984.972961,549.362244 
	C977.407654,551.307922 971.244324,552.805847 965.124878,548.325439 
z"/>
<path fill="#FAE38B" opacity="1.000000" stroke="none" 
	d="
M303.196411,548.229126 
	C304.691345,547.941467 306.332336,548.024353 307.974213,548.048035 
	C315.237457,548.152832 315.237549,548.146606 314.943207,540.410645 
	C319.766296,541.615784 317.111450,546.218628 318.600281,549.187439 
	C316.567932,549.824219 314.477386,551.119812 312.516632,550.946533 
	C309.413025,550.672180 306.396362,549.414246 303.196411,548.229126 
z"/>
<path fill="#F8E289" opacity="1.000000" stroke="none" 
	d="
M674.241577,548.188477 
	C683.801636,548.323059 683.801636,548.323059 691.907104,543.205139 
	C692.278748,544.311829 692.620361,545.329224 692.991333,546.701172 
	C687.139709,552.187500 681.342773,552.641907 674.241577,548.188477 
z"/>
<path fill="#F8E28A" opacity="1.000000" stroke="none" 
	d="
M924.091125,502.384155 
	C925.736389,502.065247 927.588806,502.280304 929.381531,502.043732 
	C934.271545,501.398376 935.373047,498.013885 935.065125,493.302094 
	C938.521362,496.107208 939.121460,499.859558 936.671387,502.786011 
	C933.924377,506.067230 928.364258,506.034058 924.091125,502.384155 
z"/>
<path fill="#F8E28A" opacity="1.000000" stroke="none" 
	d="
M734.098145,548.363342 
	C738.576782,547.068237 743.163208,546.011475 747.800903,545.278931 
	C748.729675,545.132324 749.853638,546.221313 751.055420,547.052246 
	C746.216064,552.096924 740.319153,552.565857 734.098145,548.363342 
z"/>
<path fill="#F6F6DE" opacity="1.000000" stroke="none" 
	d="
M1011.243530,536.271973 
	C1012.114380,535.347595 1013.203186,534.228577 1014.353943,534.160645 
	C1017.951538,533.948547 1021.572632,534.133362 1025.651611,534.282471 
	C1026.065430,534.801575 1026.012329,535.202454 1025.912354,535.906372 
	C1022.913635,536.786682 1019.979736,537.648010 1017.003357,537.835327 
	C1015.199463,537.948914 1013.329895,537.019226 1011.243530,536.271973 
z"/>
<path fill="#FAE38B" opacity="1.000000" stroke="none" 
	d="
M599.004211,509.460449 
	C601.438843,507.048767 603.873474,504.637085 606.591309,502.042603 
	C610.022461,503.421844 609.218079,505.371429 607.393250,507.385437 
	C605.243103,509.758514 604.005249,514.291321 599.147705,510.374756 
	C598.950195,509.896576 599.004211,509.460419 599.004211,509.460449 
z"/>
<path fill="#F6F6DE" opacity="1.000000" stroke="none" 
	d="
M459.711975,535.726685 
	C464.416443,534.989685 469.299896,534.576965 474.649902,534.282349 
	C475.042572,534.851746 474.968781,535.303101 474.812256,536.093262 
	C473.181671,536.674622 471.618561,537.189941 470.089172,537.103943 
	C466.680817,536.912476 463.289337,536.420532 459.711975,535.726685 
z"/>
<path fill="#F6F6DE" opacity="1.000000" stroke="none" 
	d="
M258.153442,536.330627 
	C259.188080,535.389099 260.445801,534.256348 261.776825,534.162476 
	C265.228668,533.919067 268.712738,534.132935 272.650818,534.282471 
	C273.055725,534.824646 272.993805,535.248657 272.868134,535.992126 
	C270.338562,536.832581 267.881927,537.707336 265.404205,537.771667 
	C263.084381,537.831848 260.742249,537.033386 258.153442,536.330627 
z"/>
<path fill="#FAE38B" opacity="1.000000" stroke="none" 
	d="
M893.003845,509.491150 
	C895.420959,507.068237 897.838074,504.645294 900.533691,502.037964 
	C903.435913,503.162170 903.745850,504.986816 901.622009,506.907166 
	C899.290466,509.015228 898.501160,514.606079 893.144775,510.395416 
	C892.945312,509.922150 893.003845,509.491150 893.003845,509.491150 
z"/>
<path fill="#F4E188" opacity="1.000000" stroke="none" 
	d="
M598.709961,509.207275 
	C599.004211,509.460419 598.950195,509.896576 598.910767,510.115051 
	C594.870483,509.807770 590.616089,507.130615 587.047485,512.070679 
	C585.980225,511.408569 584.134033,509.911407 584.364929,509.447144 
	C585.005859,508.158356 586.630127,506.321808 587.653137,506.446594 
	C591.288574,506.889984 594.835327,508.059601 598.709961,509.207275 
z"/>
<path fill="#F4E188" opacity="1.000000" stroke="none" 
	d="
M892.705444,509.236938 
	C893.003845,509.491150 892.945312,509.922150 892.904297,510.138245 
	C888.851990,509.804993 884.593445,507.127808 881.005615,512.076904 
	C879.977478,511.250916 879.121826,510.059296 878.266235,508.867706 
	C879.714661,507.935730 881.281555,506.083527 882.588257,506.251862 
	C885.923096,506.681519 889.141785,508.012390 892.705444,509.236938 
z"/>
<path fill="#FDFDF9" opacity="1.000000" stroke="none" 
	d="
M152.060501,536.389038 
	C156.552979,535.722717 161.309631,535.335754 166.531677,534.954346 
	C166.993942,535.438599 166.990814,535.917358 166.971146,536.755127 
	C165.462524,537.054321 163.970871,536.980286 162.478302,536.937195 
	C159.093994,536.839478 155.709244,536.757019 152.060501,536.389038 
z"/>
<path fill="#F8E28A" opacity="1.000000" stroke="none" 
	d="
M1028.995361,540.712036 
	C1028.426514,540.476135 1027.863770,539.914307 1027.269531,539.036804 
	C1027.825806,539.276123 1028.413818,539.831055 1028.995361,540.712036 
z"/>
<path fill="#FAE38B" opacity="1.000000" stroke="none" 
	d="
M170.025803,541.680054 
	C169.637604,541.565613 169.252747,541.115356 168.770294,540.365845 
	C169.124847,540.492493 169.576996,540.918335 170.025803,541.680054 
z"/>
<path fill="#FAE38B" opacity="1.000000" stroke="none" 
	d="
M1029.998779,515.727783 
	C1029.634277,515.592285 1029.270020,515.148132 1028.875244,514.400024 
	C1029.229492,514.537048 1029.614258,514.978088 1029.998779,515.727783 
z"/>
<path fill="#F8E28A" opacity="1.000000" stroke="none" 
	d="
M115.061249,506.676758 
	C114.709625,506.540222 114.341957,506.096252 113.922897,505.356628 
	C114.262749,505.497101 114.653984,505.933228 115.061249,506.676758 
z"/>
<path fill="#F8E28A" opacity="1.000000" stroke="none" 
	d="
M732.092529,547.209106 
	C732.521729,547.113342 733.117859,547.290405 733.858704,547.747681 
	C733.422119,547.845947 732.840820,547.663940 732.092529,547.209106 
z"/>
<path fill="#F9E28A" opacity="1.000000" stroke="none" 
	d="
M869.098022,546.292847 
	C869.554565,546.157654 870.142639,546.311829 870.864319,546.747803 
	C870.408447,546.880493 869.818970,546.731384 869.098022,546.292847 
z"/>
<path fill="#F9E28A" opacity="1.000000" stroke="none" 
	d="
M867.064697,545.326050 
	C867.483826,545.206177 868.097595,545.330750 868.861023,545.743652 
	C868.426941,545.878174 867.843079,545.724365 867.064697,545.326050 
z"/>
<path fill="#F9E28A" opacity="1.000000" stroke="none" 
	d="
M573.082764,545.305054 
	C573.501648,545.189209 574.111694,545.319214 574.868774,545.737610 
	C574.435120,545.867615 573.854492,545.709290 573.082764,545.305054 
z"/>
<path fill="#F9E28A" opacity="1.000000" stroke="none" 
	d="
M608.040894,525.697266 
	C607.673523,525.545837 607.317871,525.080200 606.932190,524.303955 
	C607.285645,524.456604 607.669067,524.919861 608.040894,525.697266 
z"/>
<path fill="#F8E28A" opacity="1.000000" stroke="none" 
	d="
M275.068176,539.695190 
	C274.691071,539.618469 274.331573,539.242065 273.919556,538.601074 
	C274.273285,538.689514 274.679565,539.042542 275.068176,539.695190 
z"/>
<path fill="#FAE38B" opacity="1.000000" stroke="none" 
	d="
M477.042969,539.710693 
	C476.670654,539.650696 476.309418,539.290527 475.878418,538.676025 
	C476.223816,538.751343 476.638947,539.080872 477.042969,539.710693 
z"/>
<path fill="#FAE38B" opacity="1.000000" stroke="none" 
	d="
M478.075073,541.678345 
	C477.697968,541.524902 477.344543,541.056458 476.996246,540.276978 
	C477.367157,540.431763 477.732941,540.897522 478.075073,541.678345 
z"/>
<path fill="#FDE288" opacity="1.000000" stroke="none" 
	d="
M374.947388,431.737427 
	C374.721069,431.850250 374.419281,431.688324 373.986389,431.294312 
	C374.194183,431.195709 374.533081,431.329224 374.947388,431.737427 
z"/>
<path fill="#FEE186" opacity="1.000000" stroke="none" 
	d="
M302.980682,470.297485 
	C303.231506,470.211456 303.511963,470.399750 303.869568,470.838257 
	C303.634583,470.916260 303.322449,470.744019 302.980682,470.297485 
z"/>
<path fill="#FEE186" opacity="1.000000" stroke="none" 
	d="
M303.972900,471.277588 
	C304.244507,471.109406 304.501190,471.280792 304.747070,471.788513 
	C304.489014,471.939606 304.229645,471.770355 303.972900,471.277588 
z"/>
<path fill="#FAE38B" opacity="1.000000" stroke="none" 
	d="
M1028.815308,513.890503 
	C1028.541870,514.057373 1028.286499,513.868713 1028.041992,513.330078 
	C1028.307129,513.168518 1028.567383,513.353516 1028.815308,513.890503 
z"/>
<path fill="#F4E28B" opacity="1.000000" stroke="none" 
	d="
M424.918030,514.778076 
	C424.695648,514.820190 424.408966,514.592163 424.070923,514.077148 
	C424.297607,514.029419 424.575684,514.268738 424.918030,514.778076 
z"/>
<path fill="#F8E28A" opacity="1.000000" stroke="none" 
	d="
M275.914124,540.797974 
	C275.681396,540.869690 275.398193,540.676697 275.065491,540.218262 
	C275.298523,540.146301 275.581085,540.339783 275.914124,540.797974 
z"/>
<path fill="#FAE38B" opacity="1.000000" stroke="none" 
	d="
M276.916412,515.770630 
	C276.683441,515.810730 276.389709,515.571167 276.054626,515.029175 
	C276.294098,514.981384 276.574890,515.236145 276.916412,515.770630 
z"/>
<path fill="#F8E289" opacity="1.000000" stroke="none" 
	d="
M367.883728,516.808716 
	C367.674591,516.846619 367.390381,516.618286 367.041748,516.108765 
	C367.254486,516.065918 367.531586,516.304199 367.883728,516.808716 
z"/>
<path fill="#F9E28A" opacity="1.000000" stroke="none" 
	d="
M963.905518,547.342163 
	C964.108521,547.233521 964.461487,547.356201 964.920227,547.743408 
	C964.702454,547.863159 964.378967,547.718323 963.905518,547.342163 
z"/>
<path fill="#F8E289" opacity="1.000000" stroke="none" 
	d="
M673.206299,547.232300 
	C673.448853,547.057434 673.724304,547.207214 674.025879,547.686584 
	C673.768250,547.881775 673.497253,547.728760 673.206299,547.232300 
z"/>
<path fill="#FAE38B" opacity="1.000000" stroke="none" 
	d="
M302.168030,547.251953 
	C302.417480,547.066345 302.702637,547.215088 303.009521,547.708618 
	C302.746796,547.904480 302.470917,547.748901 302.168030,547.251953 
z"/>
<path fill="#F8E28A" opacity="1.000000" stroke="none" 
	d="
M1003.942871,546.225830 
	C1004.146484,546.132568 1004.499634,546.276978 1004.962524,546.690063 
	C1004.745605,546.793579 1004.419067,546.628601 1003.942871,546.225830 
z"/>
<path fill="#F8E28A" opacity="1.000000" stroke="none" 
	d="
M115.926414,507.793030 
	C115.704834,507.853088 115.427437,507.653320 115.094177,507.189819 
	C115.315742,507.128448 115.593170,507.330811 115.926414,507.793030 
z"/>
<path fill="#F8E28A" opacity="1.000000" stroke="none" 
	d="
M250.925140,546.270630 
	C251.125900,546.175171 251.479202,546.313904 251.942932,546.719360 
	C251.728119,546.825623 251.402893,546.665222 250.925140,546.270630 
z"/>
<path fill="#FDFDF9" opacity="1.000000" stroke="none" 
	d="
M100.828224,511.032532 
	C104.248085,516.352905 103.708656,522.153259 102.420906,527.829834 
	C101.327522,532.649597 97.928993,535.400330 92.496887,535.431091 
	C92.093498,526.427490 92.093498,517.903381 92.093498,509.283325 
	C95.365578,509.629211 97.653259,509.871063 99.940948,510.112885 
	C99.940948,510.112885 99.996880,510.047546 100.027008,510.280090 
	C100.252274,510.777771 100.509308,510.951050 100.828224,511.032532 
z"/>
<path fill="#F0E28A" opacity="1.000000" stroke="none" 
	d="
M99.806183,509.777466 
	C97.653259,509.871063 95.365578,509.629211 92.093498,509.283325 
	C92.093498,517.903381 92.093498,526.427490 92.128494,535.408630 
	C91.144653,535.173401 89.254944,534.500488 89.239120,533.786072 
	C89.038353,524.723450 89.107002,515.654785 89.107002,505.104340 
	C93.281738,506.818481 96.476578,508.130249 99.806183,509.777466 
z"/>
<path fill="#F0E28A" opacity="1.000000" stroke="none" 
	d="
M100.761429,510.803589 
	C100.509308,510.951050 100.252274,510.777771 99.984467,510.286438 
	C100.244705,510.122253 100.505646,510.293732 100.761429,510.803589 
z"/>
<path fill="#FDFDF9" opacity="1.000000" stroke="none" 
	d="
M747.975708,520.942200 
	C748.028442,524.251648 748.145935,527.561584 748.119080,530.870361 
	C748.076599,536.101440 746.952942,537.046753 741.239014,535.978271 
	C740.717834,533.830261 740.377319,532.368408 740.231750,530.887451 
	C739.607056,524.535400 742.369690,521.018799 747.975708,520.942200 
z"/>
<path fill="#F8E28A" opacity="1.000000" stroke="none" 
	d="
M747.976196,520.585449 
	C742.369690,521.018799 739.607056,524.535400 740.231750,530.887451 
	C740.377319,532.368408 740.717834,533.830261 740.965332,535.722656 
	C736.379456,532.397522 735.579041,522.901245 739.790405,519.040955 
	C742.717529,516.357788 745.690369,516.771301 747.976196,520.585449 
z"/>
<path fill="#FDFDF9" opacity="1.000000" stroke="none" 
	d="
M411.100311,520.808716 
	C411.304352,524.642456 412.200714,528.623657 411.428650,532.249573 
	C411.025421,534.143372 407.687408,535.412231 405.274658,536.455505 
	C404.866577,533.169800 405.087128,530.368225 404.800629,527.619446 
	C404.297455,522.791565 406.182861,520.474487 411.100311,520.808716 
z"/>
<path fill="#F4E28B" opacity="1.000000" stroke="none" 
	d="
M411.031555,520.477844 
	C406.182861,520.474487 404.297455,522.791565 404.800629,527.619446 
	C405.087128,530.368225 404.866577,533.169800 404.883667,536.400452 
	C402.056976,536.160889 400.885895,534.408264 401.096313,531.461121 
	C401.283020,528.846252 400.671844,526.093872 401.279419,523.614502 
	C401.782501,521.561462 403.187897,518.838013 404.860748,518.221191 
	C406.442963,517.637817 408.893951,519.410522 411.031555,520.477844 
z"/>
<path fill="#FDFDF9" opacity="1.000000" stroke="none" 
	d="
M353.295471,519.973816 
	C353.729767,524.146362 354.747894,528.365479 354.420013,532.477234 
	C354.140198,535.986267 351.492218,538.005127 347.284027,536.012573 
	C347.028931,532.671631 346.807739,530.042725 347.047119,527.456421 
	C347.400818,523.635010 348.802399,520.450562 353.295471,519.973816 
z"/>
<path fill="#F4E188" opacity="1.000000" stroke="none" 
	d="
M353.171814,519.629517 
	C348.802399,520.450562 347.400818,523.635010 347.047119,527.456421 
	C346.807739,530.042725 347.028931,532.671631 347.010071,535.762695 
	C343.804901,532.722717 342.602875,523.928467 345.079559,520.153564 
	C347.229126,516.877319 349.981659,515.787354 353.171814,519.629517 
z"/>
<path fill="#F0E28A" opacity="1.000000" stroke="none" 
	d="
M150.971527,517.756592 
	C157.655243,516.302795 158.696304,516.889404 159.376999,521.569092 
	C157.553452,521.726257 155.721161,521.907837 153.885117,522.035217 
	C152.372284,522.140198 150.855026,522.180969 149.339722,522.250183 
	C149.771500,520.829407 150.203278,519.408569 150.971527,517.756592 
z"/>
<path fill="#F4E28B" opacity="1.000000" stroke="none" 
	d="
M263.822998,520.891907 
	C260.884979,521.701050 258.337158,522.425964 255.401031,523.261414 
	C254.759842,517.997009 257.654968,517.078613 260.929474,517.029419 
	C263.098694,516.996826 265.985901,517.078674 263.822998,520.891907 
z"/>
<path fill="#F0E28A" opacity="1.000000" stroke="none" 
	d="
M459.014893,517.776733 
	C462.425507,516.880127 465.697449,515.695007 467.264404,520.382629 
	C463.724030,521.355469 460.648651,522.200500 457.573242,523.045593 
	C457.281067,522.671692 456.988892,522.297852 456.696716,521.923950 
	C457.357697,520.619690 458.018646,519.315369 459.014893,517.776733 
z"/>
<path fill="#F0E28A" opacity="1.000000" stroke="none" 
	d="
M1013.149780,522.217041 
	C1011.408081,522.568726 1010.001587,522.711365 1008.595154,522.854065 
	C1008.261047,522.402893 1007.926941,521.951721 1007.592834,521.500488 
	C1009.097107,520.033997 1010.404236,517.734253 1012.157288,517.319458 
	C1014.183472,516.840027 1016.602539,518.020874 1018.850952,518.480774 
	C1018.793640,519.068420 1018.736267,519.656067 1018.678955,520.243713 
	C1016.947632,520.831848 1015.216309,521.419983 1013.149780,522.217041 
z"/>
</svg>